<svg height="512" id="Google_Plus_alt" version="1.1" width="512" xml:space="preserve" xmlns="http://www.w3.org/2000/svg"><pattern height="69" id="Polka_Dot_Pattern" patternUnits="userSpaceOnUse" viewBox="2.125 -70.896 69 69" width="69" y="512" overflow="visible"><path fill="none" d="M71.125-1.896h-69v-69h69z"/><path fill="#f6bb60" d="M71.125-1.896h-69v-69h69z"/><path d="M61.772-71.653a.247.247 0 01-.026.19c-.053.101-.112.062-.165.128a.636.636 0 00-.079.362c-.169.058-.01.227-.015.35-.002.05-.041.105-.045.161a.764.764 0 00.068.37c.097.198.268.413.435.544.19.148.365.572.608.631.177.042.384-.104.543-.143.18-.043.397.01.571-.053.222-.079.127-.337.288-.45.104-.074.287-.01.406-.051a.607.607 0 00.376-.46c.016-.082.01-.145.039-.221.039-.103.111-.16.09-.293-.01-.062-.052-.12-.064-.187-.022-.114.002-.224 0-.337-.003-.2.017-.379-.078-.55-.38-.688-1.236-.929-1.975-.789-.18.034-.287.126-.442.207-.17.088-.139.166-.318.224-.081.026-.216.124-.215.224.001.115.005.051.012.169-.021.011-.021-.005-.03-.025m-7.651-.001a.247.247 0 01-.026.19c-.053.101-.112.062-.165.128a.636.636 0 00-.079.362c-.169.058-.01.227-.015.35-.002.05-.041.105-.045.161a.764.764 0 00.068.37c.097.198.268.413.435.544.19.148.365.572.608.631.177.042.384-.104.543-.143.18-.043.397.01.571-.053.222-.079.127-.337.288-.45.104-.074.287-.01.406-.051a.607.607 0 00.376-.46c.016-.082.01-.145.039-.221.039-.103.111-.16.09-.293-.01-.062-.052-.12-.064-.187-.022-.114.002-.224 0-.337-.003-.2.017-.379-.078-.55-.38-.688-1.236-.929-1.975-.789-.18.034-.287.126-.442.207-.17.088-.139.166-.318.224-.081.026-.216.124-.215.224.001.115.005.051.012.169-.021.011-.021-.005-.03-.025m-7.65-.001a.247.247 0 01-.026.19c-.053.101-.112.062-.165.128a.636.636 0 00-.079.362c-.169.058-.01.227-.015.35-.002.05-.041.105-.045.161a.764.764 0 00.068.37c.097.198.268.413.435.544.19.148.365.572.608.631.177.042.384-.104.543-.143.18-.043.397.01.571-.053.222-.079.127-.337.288-.45.104-.074.287-.01.406-.051a.607.607 0 00.376-.46c.016-.082.01-.145.039-.221.039-.103.111-.16.09-.293-.01-.062-.052-.12-.064-.187-.022-.114.002-.224 0-.337-.003-.2.017-.379-.078-.55-.38-.688-1.236-.929-1.975-.789-.18.034-.287.126-.442.207-.17.088-.139.166-.318.224-.081.026-.216.124-.215.224.001.115.005.051.012.169-.021.011-.021-.005-.03-.025m-7.651-.001a.247.247 0 01-.026.19c-.053.101-.112.062-.165.128a.636.636 0 00-.079.362c-.169.058-.01.227-.015.35-.002.05-.041.105-.045.161a.764.764 0 00.068.37c.097.198.268.413.435.544.19.148.365.572.608.631.177.042.384-.104.543-.143.18-.043.397.01.571-.053.222-.079.127-.337.288-.45.104-.074.287-.01.406-.051a.607.607 0 00.376-.46c.016-.082.01-.145.039-.221.039-.103.111-.16.09-.293-.01-.062-.052-.12-.064-.187-.022-.114.002-.224 0-.337-.003-.2.017-.379-.078-.55-.38-.688-1.236-.929-1.975-.789-.18.034-.287.126-.442.207-.17.088-.139.166-.318.224-.081.026-.216.124-.215.224.001.115.005.051.012.169-.021.011-.021-.005-.03-.025m-7.651-.001a.247.247 0 01-.026.19c-.053.101-.112.062-.165.128a.636.636 0 00-.079.362c-.169.058-.01.227-.015.35-.002.05-.041.105-.045.161a.764.764 0 00.068.37c.097.198.268.413.435.544.19.148.365.572.608.631.177.042.384-.104.543-.143.18-.043.397.01.571-.053.222-.079.127-.337.288-.45.104-.074.287-.01.406-.051a.607.607 0 00.376-.46c.016-.082.01-.145.039-.221.039-.103.111-.16.09-.293-.01-.062-.052-.12-.064-.187-.022-.114.002-.224 0-.337-.003-.2.017-.379-.078-.55-.38-.688-1.236-.929-1.975-.789-.18.034-.287.126-.442.207-.17.088-.139.166-.318.224-.081.026-.216.124-.215.224.001.115.005.051.012.169-.021.011-.021-.005-.03-.025m-7.65-.001a.247.247 0 01-.026.19c-.053.101-.112.062-.165.128a.636.636 0 00-.079.362c-.169.058-.01.227-.015.35-.002.05-.041.105-.045.161a.764.764 0 00.068.37c.097.198.268.413.435.544.19.148.365.572.608.631.177.042.384-.104.543-.143.18-.043.397.01.571-.053.222-.079.127-.337.288-.45.104-.074.287-.01.406-.051a.607.607 0 00.376-.46c.016-.082.01-.145.039-.221.039-.103.111-.16.09-.293-.01-.062-.052-.12-.064-.187-.022-.114.002-.224 0-.337-.003-.2.017-.379-.078-.55-.38-.688-1.236-.929-1.975-.789-.18.034-.287.126-.442.207-.17.088-.139.166-.318.224-.081.026-.216.124-.215.224.001.115.005.051.012.169-.021.011-.021-.005-.03-.025m-7.651-.001a.247.247 0 01-.026.19c-.053.101-.112.062-.165.128a.636.636 0 00-.079.362c-.169.058-.01.227-.015.35-.002.05-.041.105-.045.161a.764.764 0 00.068.37c.097.198.268.413.435.544.19.148.365.572.608.631.177.042.384-.104.543-.143.18-.043.397.01.571-.053.222-.079.127-.337.288-.45.104-.074.287-.01.406-.051a.607.607 0 00.376-.46c.016-.082.01-.145.039-.221.039-.103.111-.16.09-.293-.01-.062-.052-.12-.064-.187-.022-.114.002-.224 0-.337-.003-.2.017-.379-.078-.55-.38-.688-1.236-.929-1.975-.789-.18.034-.287.126-.442.207-.17.088-.139.166-.318.224-.081.026-.216.124-.215.224.001.115.005.051.012.169-.021.011-.021-.005-.03-.025m-7.651-.001a.247.247 0 01-.026.19c-.053.101-.112.062-.165.128a.636.636 0 00-.079.362c-.169.058-.01.227-.015.35-.002.05-.041.105-.045.161a.764.764 0 00.068.37c.097.198.268.413.435.544.19.148.365.572.608.631.177.042.384-.104.543-.143.18-.043.397.01.571-.053.222-.079.127-.337.288-.45.104-.074.287-.01.406-.051a.607.607 0 00.376-.46c.016-.082.01-.145.039-.221.039-.103.111-.16.09-.293-.01-.062-.052-.12-.064-.187-.022-.114.002-.224 0-.337-.003-.2.017-.379-.078-.55-.38-.688-1.236-.929-1.975-.789-.18.034-.287.126-.442.207-.17.088-.139.166-.318.224-.081.026-.216.124-.215.224.001.115.005.051.012.169-.021.011-.021-.005-.03-.025m-7.65-.001a.242.242 0 01-.026.19c-.052.101-.113.063-.165.128a.628.628 0 00-.079.362c-.169.058-.01.227-.015.35-.002.05-.041.105-.045.161a.764.764 0 00.068.37c.097.198.268.413.435.544.19.148.365.572.608.631.177.042.384-.104.543-.143.18-.043.397.01.571-.053.222-.079.127-.337.288-.45.104-.074.287-.01.406-.051.2-.07.339-.263.376-.46.016-.082.01-.145.039-.221.038-.103.111-.16.09-.293-.01-.062-.051-.12-.064-.187-.021-.114.002-.224 0-.337-.003-.2.017-.379-.078-.55-.38-.688-1.236-.929-1.975-.789-.18.034-.287.126-.442.207-.17.088-.139.166-.318.224-.081.026-.215.124-.215.224.002.115.005.051.012.169-.021.011-.021-.005-.03-.025" fill="#fff"/><path d="M69.439-71.653a.242.242 0 01-.026.19c-.052.101-.113.062-.165.128a.628.628 0 00-.079.362c-.169.058-.01.227-.015.35-.002.05-.041.105-.045.161a.764.764 0 00.068.37c.097.198.268.413.435.544.19.148.365.572.608.631.177.042.384-.104.543-.143.18-.043.397.01.571-.053.222-.079.127-.337.288-.45.104-.074.287-.01.406-.051.2-.07.339-.263.376-.46.016-.082.01-.145.039-.221.038-.103.111-.16.09-.293-.01-.062-.051-.12-.064-.187-.021-.114.002-.224 0-.337-.003-.2.017-.379-.078-.55-.38-.688-1.236-.929-1.975-.789-.18.034-.287.126-.442.207-.17.088-.139.166-.318.224-.081.026-.215.124-.215.224.002.115.005.051.012.169-.021.011-.021-.005-.03-.025M.495-71.653a.242.242 0 01-.026.19c-.052.101-.113.062-.165.128a.628.628 0 00-.079.362c-.169.058-.01.227-.015.35-.002.05-.041.105-.045.161a.764.764 0 00.068.37c.097.198.268.413.435.544.19.148.365.572.608.631.177.042.384-.104.543-.143.18-.043.397.01.571-.053.222-.079.127-.337.288-.45.104-.074.287-.01.406-.051.2-.07.339-.263.376-.46.016-.082.01-.145.039-.221.038-.103.111-.16.09-.293-.01-.062-.051-.12-.064-.187-.021-.114.002-.224 0-.337-.003-.2.017-.379-.078-.55-.38-.688-1.236-.929-1.975-.789-.18.034-.287.126-.442.207-.17.088-.139.166-.318.224-.081.026-.215.124-.215.224.003.116.006.052.013.17-.021.011-.021-.005-.03-.025m68.959 7.65a.247.247 0 01-.026.19c-.053.101-.112.062-.165.128a.636.636 0 00-.079.362c-.169.058-.01.227-.015.35-.002.05-.041.105-.045.161a.764.764 0 00.068.37c.097.198.268.413.435.544.19.148.365.572.608.631.177.042.384-.104.543-.143.18-.043.397.01.571-.053.222-.079.127-.337.288-.45.104-.074.287-.01.406-.051a.607.607 0 00.376-.46c.016-.082.01-.145.039-.221.039-.103.111-.16.09-.293-.01-.062-.052-.12-.064-.187-.022-.114.002-.224 0-.337-.003-.2.017-.379-.078-.55-.38-.688-1.236-.929-1.975-.789-.18.034-.287.126-.442.207-.17.088-.139.166-.318.224-.081.026-.216.124-.215.224.001.115.005.051.012.169-.021.011-.021-.005-.03-.025m-7.645-.001a.247.247 0 01-.026.19c-.053.101-.112.062-.165.128a.636.636 0 00-.079.362c-.169.058-.009.227-.015.35-.002.05-.041.105-.045.161a.764.764 0 00.068.37c.097.198.268.413.435.544.19.148.365.572.608.631.177.042.384-.104.543-.143.18-.043.397.01.571-.053.222-.079.127-.337.288-.45.104-.074.287-.01.406-.051a.607.607 0 00.376-.46c.016-.082.01-.145.039-.221.039-.103.111-.16.09-.293-.01-.062-.052-.12-.064-.187-.022-.114.002-.224 0-.337-.003-.2.017-.379-.078-.55-.38-.688-1.236-.929-1.975-.789-.18.034-.287.126-.442.207-.17.088-.139.166-.318.224-.081.026-.216.124-.215.224.001.115.005.051.012.169-.021.011-.021-.005-.03-.025m-7.644-.001a.247.247 0 01-.026.19c-.053.101-.112.062-.165.128a.636.636 0 00-.079.362c-.169.058-.009.227-.015.35-.002.05-.041.105-.045.161a.764.764 0 00.068.37c.097.198.268.413.435.544.19.148.365.572.608.631.177.042.384-.104.543-.143.18-.043.397.01.571-.053.222-.079.127-.337.288-.45.104-.074.287-.01.406-.051a.607.607 0 00.376-.46c.016-.082.01-.145.039-.221.039-.103.111-.16.09-.293-.01-.062-.052-.12-.064-.187-.022-.114.002-.224 0-.337-.003-.2.017-.379-.078-.55-.38-.688-1.236-.929-1.975-.789-.18.034-.287.126-.442.207-.17.088-.139.166-.318.224-.081.026-.216.124-.215.224.001.115.005.051.012.169-.021.011-.021-.005-.03-.025m-7.644-.001a.247.247 0 01-.026.19c-.053.101-.112.062-.165.128a.636.636 0 00-.079.362c-.169.058-.009.227-.015.35-.002.05-.041.105-.045.161a.764.764 0 00.068.37c.097.198.268.413.435.544.19.148.365.572.608.631.177.042.384-.104.543-.143.18-.043.397.01.571-.053.222-.079.127-.337.288-.45.104-.074.287-.01.406-.051a.607.607 0 00.376-.46c.016-.082.01-.145.039-.221.039-.103.111-.16.09-.293-.01-.062-.052-.12-.064-.187-.022-.114.002-.224 0-.337-.003-.2.017-.379-.078-.55-.38-.688-1.236-.929-1.975-.789-.18.034-.287.126-.442.207-.17.088-.139.166-.318.224-.081.026-.216.124-.215.224.001.115.005.051.012.169-.021.011-.021-.005-.03-.025m-7.645-.001a.247.247 0 01-.026.19c-.053.101-.112.062-.165.128a.636.636 0 00-.079.362c-.169.058-.009.227-.015.35-.002.05-.041.105-.045.161a.764.764 0 00.068.37c.097.198.268.413.435.544.19.148.365.572.608.631.177.042.384-.104.543-.143.18-.043.397.01.571-.053.222-.079.127-.337.288-.45.104-.074.287-.01.406-.051a.607.607 0 00.376-.46c.016-.082.01-.145.039-.221.039-.103.111-.16.09-.293-.01-.062-.052-.12-.064-.187-.022-.114.002-.224 0-.337-.003-.2.017-.379-.078-.55-.38-.688-1.236-.929-1.975-.789-.18.034-.287.126-.442.207-.17.088-.139.166-.318.224-.081.026-.216.124-.215.224.001.115.005.051.012.169-.021.011-.021-.005-.03-.025m-7.644-.001a.247.247 0 01-.026.19c-.053.101-.112.062-.165.128a.636.636 0 00-.079.362c-.169.058-.009.227-.015.35-.002.05-.041.105-.045.161a.764.764 0 00.068.37c.097.198.268.413.435.544.19.148.365.572.608.631.177.042.384-.104.543-.143.18-.043.397.01.571-.053.222-.079.127-.337.288-.45.104-.074.287-.01.406-.051a.607.607 0 00.376-.46c.016-.082.01-.145.039-.221.039-.103.111-.16.09-.293-.01-.062-.052-.12-.064-.187-.022-.114.002-.224 0-.337-.003-.2.017-.379-.078-.55-.38-.688-1.236-.929-1.975-.789-.18.034-.287.126-.442.207-.17.088-.139.166-.318.224-.081.026-.216.124-.215.224.001.115.005.051.012.169-.021.011-.021-.005-.03-.025m-7.644-.001a.247.247 0 01-.026.19c-.053.101-.112.062-.165.128a.636.636 0 00-.079.362c-.169.058-.009.227-.015.35-.002.05-.041.105-.045.161a.764.764 0 00.068.37c.097.198.268.413.435.544.19.148.365.572.608.631.177.042.384-.104.543-.143.18-.043.397.01.571-.053.222-.079.127-.337.288-.45.104-.074.287-.01.406-.051a.607.607 0 00.376-.46c.016-.082.01-.145.039-.221.039-.103.111-.16.09-.293-.01-.062-.052-.12-.064-.187-.022-.114.002-.224 0-.337-.003-.2.017-.379-.078-.55-.38-.688-1.236-.929-1.975-.789-.18.034-.287.126-.442.207-.17.088-.139.166-.318.224-.081.026-.216.124-.215.224.001.115.005.051.012.169-.021.011-.021-.005-.03-.025m-7.645-.001a.247.247 0 01-.026.19c-.053.101-.112.062-.165.128a.636.636 0 00-.079.362c-.169.058-.009.227-.015.35-.002.05-.041.105-.045.161a.764.764 0 00.068.37c.097.198.268.413.435.544.19.148.365.572.608.631.177.042.384-.104.543-.143.18-.043.397.01.571-.053.222-.079.127-.337.288-.45.104-.074.287-.01.406-.051a.607.607 0 00.376-.46c.016-.082.01-.145.039-.221.039-.103.111-.16.09-.293-.01-.062-.052-.12-.064-.187-.022-.114.002-.224 0-.337-.003-.2.017-.379-.078-.55-.38-.688-1.236-.929-1.975-.789-.18.034-.287.126-.442.207-.17.088-.139.166-.318.224-.081.026-.216.124-.215.224.001.115.005.051.012.169-.021.011-.021-.005-.03-.025m-7.644-.001a.247.247 0 01-.026.19c-.053.101-.112.062-.165.128a.636.636 0 00-.079.362c-.169.058-.009.227-.015.35-.002.05-.041.105-.045.161a.764.764 0 00.068.37c.097.198.268.413.435.544.19.148.365.572.608.631.177.042.384-.104.543-.143.18-.043.397.01.571-.053.222-.079.127-.337.288-.45.104-.074.287-.01.406-.051a.607.607 0 00.376-.46c.016-.082.01-.145.039-.221.039-.103.111-.16.09-.293-.01-.062-.052-.12-.064-.187-.022-.114.002-.224 0-.337-.003-.2.017-.379-.078-.55-.38-.688-1.236-.929-1.975-.789-.18.034-.287.126-.442.207-.17.088-.139.166-.318.224-.081.026-.216.124-.215.224.001.115.005.051.012.169-.021.011-.021-.005-.03-.025m-7.645-.001a.247.247 0 01-.026.19c-.053.101-.112.062-.165.128a.636.636 0 00-.079.362c-.169.058-.01.227-.015.35-.002.05-.041.105-.045.161a.764.764 0 00.068.37c.097.198.268.413.435.544.19.148.365.572.608.631.177.042.384-.104.543-.143.181-.042.398.011.572-.052.222-.079.127-.337.288-.45.104-.074.287-.01.406-.051a.607.607 0 00.376-.46c.016-.082.01-.145.039-.221.039-.103.111-.16.09-.293-.01-.062-.052-.12-.064-.187-.022-.114.002-.224 0-.337-.003-.2.017-.379-.078-.55-.38-.688-1.236-.929-1.975-.789-.18.034-.287.126-.442.207-.17.088-.139.166-.318.224-.081.026-.216.124-.215.224.001.115.005.051.012.169-.021.011-.021-.005-.03-.025m68.959 7.651a.247.247 0 01-.026.19c-.053.101-.112.062-.165.128a.636.636 0 00-.079.362c-.169.058-.01.227-.015.35-.002.05-.041.105-.045.161a.764.764 0 00.068.37c.097.198.268.413.435.544.19.148.365.572.608.631.177.042.384-.104.543-.143.18-.043.397.01.571-.053.222-.079.127-.337.288-.45.104-.074.287-.01.406-.051a.607.607 0 00.376-.46c.016-.082.01-.145.039-.221.039-.103.111-.16.09-.293-.01-.062-.052-.12-.064-.187-.022-.114.002-.224 0-.337-.003-.2.017-.379-.078-.55-.38-.688-1.236-.929-1.975-.789-.18.034-.287.126-.442.207-.17.088-.139.166-.318.224-.081.026-.216.124-.215.224.001.115.005.051.012.169-.021.011-.021-.005-.03-.025m-7.645-.001a.247.247 0 01-.026.19c-.053.101-.112.062-.165.128a.636.636 0 00-.079.362c-.169.058-.009.227-.015.35-.002.05-.041.105-.045.161a.764.764 0 00.068.37c.097.198.268.413.435.544.19.148.365.572.608.631.177.042.384-.104.543-.143.18-.043.397.01.571-.053.222-.079.127-.337.288-.45.104-.074.287-.01.406-.051a.607.607 0 00.376-.46c.016-.082.01-.145.039-.221.039-.103.111-.16.09-.293-.01-.062-.052-.12-.064-.187-.022-.114.002-.224 0-.337-.003-.2.017-.379-.078-.55-.38-.688-1.236-.929-1.975-.789-.18.034-.287.126-.442.207-.17.088-.139.166-.318.224-.081.026-.216.124-.215.224.001.115.005.051.012.169-.021.011-.021-.005-.03-.025m-7.644-.001a.247.247 0 01-.026.19c-.053.101-.112.062-.165.128a.636.636 0 00-.079.362c-.169.058-.009.227-.015.35-.002.05-.041.105-.045.161a.764.764 0 00.068.37c.097.198.268.413.435.544.19.148.365.572.608.631.177.042.384-.104.543-.143.18-.043.397.01.571-.053.222-.079.127-.337.288-.45.104-.074.287-.01.406-.051a.607.607 0 00.376-.46c.016-.082.01-.145.039-.221.039-.103.111-.16.09-.293-.01-.062-.052-.12-.064-.187-.022-.114.002-.224 0-.337-.003-.2.017-.379-.078-.55-.38-.688-1.236-.929-1.975-.789-.18.034-.287.126-.442.207-.17.088-.139.166-.318.224-.081.026-.216.124-.215.224.001.115.005.051.012.169-.021.011-.021-.005-.03-.025m-7.644-.001a.247.247 0 01-.026.19c-.053.101-.112.062-.165.128a.636.636 0 00-.079.362c-.169.058-.009.227-.015.35-.002.05-.041.105-.045.161a.764.764 0 00.068.37c.097.198.268.413.435.544.19.148.365.572.608.631.177.042.384-.104.543-.143.18-.043.397.01.571-.053.222-.079.127-.337.288-.45.104-.074.287-.01.406-.051a.607.607 0 00.376-.46c.016-.082.01-.145.039-.221.039-.103.111-.16.09-.293-.01-.062-.052-.12-.064-.187-.022-.114.002-.224 0-.337-.003-.2.017-.379-.078-.55-.38-.688-1.236-.929-1.975-.789-.18.034-.287.126-.442.207-.17.088-.139.166-.318.224-.081.026-.216.124-.215.224.001.115.005.051.012.169-.021.011-.021-.005-.03-.025m-7.645-.001a.247.247 0 01-.026.19c-.053.101-.112.062-.165.128a.636.636 0 00-.079.362c-.169.058-.009.227-.015.35-.002.05-.041.105-.045.161a.764.764 0 00.068.37c.097.198.268.413.435.544.19.148.365.572.608.631.177.042.384-.104.543-.143.18-.043.397.01.571-.053.222-.079.127-.337.288-.45.104-.074.287-.01.406-.051a.607.607 0 00.376-.46c.016-.082.01-.145.039-.221.039-.103.111-.16.09-.293-.01-.062-.052-.12-.064-.187-.022-.114.002-.224 0-.337-.003-.2.017-.379-.078-.55-.38-.688-1.236-.929-1.975-.789-.18.034-.287.126-.442.207-.17.088-.139.166-.318.224-.081.026-.216.124-.215.224.001.115.005.051.012.169-.021.011-.021-.005-.03-.025m-7.644-.001a.247.247 0 01-.026.19c-.053.101-.112.062-.165.128a.636.636 0 00-.079.362c-.169.058-.009.227-.015.35-.002.05-.041.105-.045.161a.764.764 0 00.068.37c.097.198.268.413.435.544.19.148.365.572.608.631.177.042.384-.104.543-.143.18-.043.397.01.571-.053.222-.079.127-.337.288-.45.104-.074.287-.01.406-.051a.607.607 0 00.376-.46c.016-.082.01-.145.039-.221.039-.103.111-.16.09-.293-.01-.062-.052-.12-.064-.187-.022-.114.002-.224 0-.337-.003-.2.017-.379-.078-.55-.38-.688-1.236-.929-1.975-.789-.18.034-.287.126-.442.207-.17.088-.139.166-.318.224-.081.026-.216.124-.215.224.001.115.005.051.012.169-.021.011-.021-.005-.03-.025m-7.644-.001a.247.247 0 01-.026.19c-.053.101-.112.062-.165.128a.636.636 0 00-.079.362c-.169.058-.009.227-.015.35-.002.05-.041.105-.045.161a.764.764 0 00.068.37c.097.198.268.413.435.544.19.148.365.572.608.631.177.042.384-.104.543-.143.18-.043.397.01.571-.053.222-.079.127-.337.288-.45.104-.074.287-.01.406-.051a.607.607 0 00.376-.46c.016-.082.01-.145.039-.221.039-.103.111-.16.09-.293-.01-.062-.052-.12-.064-.187-.022-.114.002-.224 0-.337-.003-.2.017-.379-.078-.55-.38-.688-1.236-.929-1.975-.789-.18.034-.287.126-.442.207-.17.088-.139.166-.318.224-.081.026-.216.124-.215.224.001.115.005.051.012.169-.021.011-.021-.005-.03-.025m-7.645-.001a.247.247 0 01-.026.19c-.053.101-.112.062-.165.128a.636.636 0 00-.079.362c-.169.058-.009.227-.015.35-.002.05-.041.105-.045.161a.764.764 0 00.068.37c.097.198.268.413.435.544.19.148.365.572.608.631.177.042.384-.104.543-.143.18-.043.397.01.571-.053.222-.079.127-.337.288-.45.104-.074.287-.01.406-.051a.607.607 0 00.376-.46c.016-.082.01-.145.039-.221.039-.103.111-.16.09-.293-.01-.062-.052-.12-.064-.187-.022-.114.002-.224 0-.337-.003-.2.017-.379-.078-.55-.38-.688-1.236-.929-1.975-.789-.18.034-.287.126-.442.207-.17.088-.139.166-.318.224-.081.026-.216.124-.215.224.001.115.005.051.012.169-.021.011-.021-.005-.03-.025m-7.644-.001a.247.247 0 01-.026.19c-.053.101-.112.062-.165.128a.636.636 0 00-.079.362c-.169.058-.009.227-.015.35-.002.05-.041.105-.045.161a.764.764 0 00.068.37c.097.198.268.413.435.544.19.148.365.572.608.631.177.042.384-.104.543-.143.18-.043.397.01.571-.053.222-.079.127-.337.288-.45.104-.074.287-.01.406-.051a.607.607 0 00.376-.46c.016-.082.01-.145.039-.221.039-.103.111-.16.09-.293-.01-.062-.052-.12-.064-.187-.022-.114.002-.224 0-.337-.003-.2.017-.379-.078-.55-.38-.688-1.236-.929-1.975-.789-.18.034-.287.126-.442.207-.17.088-.139.166-.318.224-.081.026-.216.124-.215.224.001.115.005.051.012.169-.021.011-.021-.005-.03-.025m-7.645-.001a.247.247 0 01-.026.19c-.053.101-.112.062-.165.128a.636.636 0 00-.079.362c-.169.058-.01.227-.015.35-.002.05-.041.105-.045.161a.764.764 0 00.068.37c.097.198.268.413.435.544.19.148.365.572.608.631.177.042.384-.104.543-.143.18-.043.397.01.571-.053.222-.079.127-.337.288-.45.104-.074.287-.01.406-.051a.607.607 0 00.376-.46c.016-.082.01-.145.039-.221.039-.103.111-.16.09-.293-.01-.062-.052-.12-.064-.187-.022-.114.002-.224 0-.337-.003-.2.017-.379-.078-.55-.38-.688-1.236-.929-1.975-.789-.18.034-.287.126-.442.207-.17.088-.139.166-.318.224-.081.026-.216.124-.215.224.003.117.006.053.013.171-.021.011-.021-.005-.03-.025m68.959 7.65a.247.247 0 01-.026.19c-.053.101-.112.062-.165.128a.636.636 0 00-.079.362c-.169.058-.01.227-.015.35-.002.05-.041.105-.045.161a.764.764 0 00.068.37c.097.198.268.413.435.544.19.148.365.572.608.631.177.042.384-.104.543-.143.18-.043.397.01.571-.053.222-.079.127-.337.288-.45.104-.074.287-.01.406-.051a.607.607 0 00.376-.46c.016-.082.01-.145.039-.221.039-.103.111-.16.09-.293-.01-.062-.052-.12-.064-.187-.022-.114.002-.224 0-.337-.003-.2.017-.379-.078-.55-.38-.688-1.236-.929-1.975-.789-.18.034-.287.126-.442.207-.17.088-.139.166-.318.224-.081.026-.216.124-.215.224.001.115.005.051.012.169-.021.011-.021-.005-.03-.025m-7.645-.001a.247.247 0 01-.026.19c-.053.101-.112.062-.165.128a.636.636 0 00-.079.362c-.169.058-.009.227-.015.35-.002.05-.041.105-.045.161a.764.764 0 00.068.37c.097.198.268.413.435.544.19.148.365.572.608.631.177.042.384-.104.543-.143.18-.043.397.01.571-.053.222-.079.127-.337.288-.45.104-.074.287-.01.406-.051a.607.607 0 00.376-.46c.016-.082.01-.145.039-.221.039-.103.111-.16.09-.293-.01-.062-.052-.12-.064-.187-.022-.114.002-.224 0-.337-.003-.2.017-.379-.078-.55-.38-.688-1.236-.929-1.975-.789-.18.034-.287.126-.442.207-.17.088-.139.166-.318.224-.081.026-.216.124-.215.224.001.115.005.051.012.169-.021.011-.021-.005-.03-.025m-7.644-.001a.247.247 0 01-.026.19c-.053.101-.112.062-.165.128a.636.636 0 00-.079.362c-.169.058-.009.227-.015.35-.002.05-.041.105-.045.161a.764.764 0 00.068.37c.097.198.268.413.435.544.19.148.365.572.608.631.177.042.384-.104.543-.143.18-.043.397.01.571-.053.222-.079.127-.337.288-.45.104-.074.287-.01.406-.051a.607.607 0 00.376-.46c.016-.082.01-.145.039-.221.039-.103.111-.16.09-.293-.01-.062-.052-.12-.064-.187-.022-.114.002-.224 0-.337-.003-.2.017-.379-.078-.55-.38-.688-1.236-.929-1.975-.789-.18.034-.287.126-.442.207-.17.088-.139.166-.318.224-.081.026-.216.124-.215.224.001.115.005.051.012.169-.021.011-.021-.005-.03-.025m-7.644-.001a.247.247 0 01-.026.19c-.053.101-.112.062-.165.128a.636.636 0 00-.079.362c-.169.058-.009.227-.015.35-.002.05-.041.105-.045.161a.764.764 0 00.068.37c.097.198.268.413.435.544.19.148.365.572.608.631.177.042.384-.104.543-.143.18-.043.397.01.571-.053.222-.079.127-.337.288-.45.104-.074.287-.01.406-.051a.607.607 0 00.376-.46c.016-.082.01-.145.039-.221.039-.103.111-.16.09-.293-.01-.062-.052-.12-.064-.187-.022-.114.002-.224 0-.337-.003-.2.017-.379-.078-.55-.38-.688-1.236-.929-1.975-.789-.18.034-.287.126-.442.207-.17.088-.139.166-.318.224-.081.026-.216.124-.215.224.001.115.005.051.012.169-.021.011-.021-.005-.03-.025m-7.645-.001a.247.247 0 01-.026.19c-.053.101-.112.062-.165.128a.636.636 0 00-.079.362c-.169.058-.009.227-.015.35-.002.05-.041.105-.045.161a.764.764 0 00.068.37c.097.198.268.413.435.544.19.148.365.572.608.631.177.042.384-.104.543-.143.18-.043.397.01.571-.053.222-.079.127-.337.288-.45.104-.074.287-.01.406-.051a.607.607 0 00.376-.46c.016-.082.01-.145.039-.221.039-.103.111-.16.09-.293-.01-.062-.052-.12-.064-.187-.022-.114.002-.224 0-.337-.003-.2.017-.379-.078-.55-.38-.688-1.236-.929-1.975-.789-.18.034-.287.126-.442.207-.17.088-.139.166-.318.224-.081.026-.216.124-.215.224.001.115.005.051.012.169-.021.011-.021-.005-.03-.025m-7.644-.001a.247.247 0 01-.026.19c-.053.101-.112.062-.165.128a.636.636 0 00-.079.362c-.169.058-.009.227-.015.35-.002.05-.041.105-.045.161a.764.764 0 00.068.37c.097.198.268.413.435.544.19.148.365.572.608.631.177.042.384-.104.543-.143.18-.043.397.01.571-.053.222-.079.127-.337.288-.45.104-.074.287-.01.406-.051a.607.607 0 00.376-.46c.016-.082.01-.145.039-.221.039-.103.111-.16.09-.293-.01-.062-.052-.12-.064-.187-.022-.114.002-.224 0-.337-.003-.2.017-.379-.078-.55-.38-.688-1.236-.929-1.975-.789-.18.034-.287.126-.442.207-.17.088-.139.166-.318.224-.081.026-.216.124-.215.224.001.115.005.051.012.169-.021.011-.021-.005-.03-.025m-7.644-.001a.247.247 0 01-.026.19c-.053.101-.112.062-.165.128a.636.636 0 00-.079.362c-.169.058-.009.227-.015.35-.002.05-.041.105-.045.161a.764.764 0 00.068.37c.097.198.268.413.435.544.19.148.365.572.608.631.177.042.384-.104.543-.143.18-.043.397.01.571-.053.222-.079.127-.337.288-.45.104-.074.287-.01.406-.051a.607.607 0 00.376-.46c.016-.082.01-.145.039-.221.039-.103.111-.16.09-.293-.01-.062-.052-.12-.064-.187-.022-.114.002-.224 0-.337-.003-.2.017-.379-.078-.55-.38-.688-1.236-.929-1.975-.789-.18.034-.287.126-.442.207-.17.088-.139.166-.318.224-.081.026-.216.124-.215.224.001.115.005.051.012.169-.021.011-.021-.005-.03-.025m-7.645-.001a.247.247 0 01-.026.19c-.053.101-.112.062-.165.128a.636.636 0 00-.079.362c-.169.058-.009.227-.015.35-.002.05-.041.105-.045.161a.764.764 0 00.068.37c.097.198.268.413.435.544.19.148.365.572.608.631.177.042.384-.104.543-.143.18-.043.397.01.571-.053.222-.079.127-.337.288-.45.104-.074.287-.01.406-.051a.607.607 0 00.376-.46c.016-.082.01-.145.039-.221.039-.103.111-.16.09-.293-.01-.062-.052-.12-.064-.187-.022-.114.002-.224 0-.337-.003-.2.017-.379-.078-.55-.38-.688-1.236-.929-1.975-.789-.18.034-.287.126-.442.207-.17.088-.139.166-.318.224-.081.026-.216.124-.215.224.001.115.005.051.012.169-.021.011-.021-.005-.03-.025m-7.644-.001a.247.247 0 01-.026.19c-.053.101-.112.062-.165.128a.636.636 0 00-.079.362c-.169.058-.009.227-.015.35-.002.05-.041.105-.045.161a.764.764 0 00.068.37c.097.198.268.413.435.544.19.148.365.572.608.631.177.042.384-.104.543-.143.18-.043.397.01.571-.053.222-.079.127-.337.288-.45.104-.074.287-.01.406-.051a.607.607 0 00.376-.46c.016-.082.01-.145.039-.221.039-.103.111-.16.09-.293-.01-.062-.052-.12-.064-.187-.022-.114.002-.224 0-.337-.003-.2.017-.379-.078-.55-.38-.688-1.236-.929-1.975-.789-.18.034-.287.126-.442.207-.17.088-.139.166-.318.224-.081.026-.216.124-.215.224.001.115.005.051.012.169-.021.011-.021-.005-.03-.025m-7.645-.001a.247.247 0 01-.026.19c-.053.101-.112.062-.165.128a.636.636 0 00-.079.362c-.169.058-.01.227-.015.35-.002.05-.041.105-.045.161a.764.764 0 00.068.37c.097.198.268.413.435.544.19.148.365.572.608.631.177.042.384-.104.543-.143.18-.043.397.01.571-.053.222-.079.127-.337.288-.45.104-.074.287-.01.406-.051a.607.607 0 00.376-.46c.016-.082.01-.145.039-.221.039-.103.111-.16.09-.293-.01-.062-.052-.12-.064-.187-.022-.114.002-.224 0-.337-.003-.2.017-.379-.078-.55-.38-.688-1.236-.929-1.975-.789-.18.034-.287.126-.442.207-.17.088-.139.166-.318.224-.081.026-.216.124-.215.224.001.115.005.051.012.169-.021.011-.021-.005-.03-.025m68.96 7.652a.247.247 0 01-.026.19c-.053.101-.112.062-.165.128a.636.636 0 00-.079.362c-.169.058-.01.227-.015.35-.002.05-.041.105-.045.161a.764.764 0 00.068.37c.097.198.268.413.435.544.19.148.365.572.608.631.177.042.384-.104.543-.143.18-.043.397.01.571-.053.222-.079.127-.337.288-.45.104-.074.287-.01.406-.051a.607.607 0 00.376-.46c.016-.082.01-.145.039-.221.039-.103.111-.16.09-.293-.01-.062-.052-.12-.064-.187-.022-.114.002-.224 0-.337-.003-.2.017-.379-.078-.55-.38-.688-1.236-.929-1.975-.789-.18.034-.287.126-.442.207-.17.088-.139.166-.318.224-.081.026-.216.124-.215.224.001.115.005.051.012.169-.021.011-.021-.005-.03-.025m-7.645-.001a.247.247 0 01-.026.19c-.053.101-.112.062-.165.128a.636.636 0 00-.079.362c-.169.058-.009.227-.015.35-.002.05-.041.105-.045.161a.764.764 0 00.068.37c.097.198.268.413.435.544.19.148.365.572.608.631.177.042.384-.104.543-.143.18-.043.397.01.571-.053.222-.079.127-.337.288-.45.104-.074.287-.01.406-.051a.607.607 0 00.376-.46c.016-.082.01-.145.039-.221.039-.103.111-.16.09-.293-.01-.062-.052-.12-.064-.187-.022-.114.002-.224 0-.337-.003-.2.017-.379-.078-.55-.38-.688-1.236-.929-1.975-.789-.18.034-.287.126-.442.207-.17.088-.139.166-.318.224-.081.026-.216.124-.215.224.001.115.005.051.012.169-.021.011-.021-.005-.03-.025m-7.644-.001a.247.247 0 01-.026.19c-.053.101-.112.062-.165.128a.636.636 0 00-.079.362c-.169.058-.009.227-.015.35-.002.05-.041.105-.045.161a.764.764 0 00.068.37c.097.198.268.413.435.544.19.148.365.572.608.631.177.042.384-.104.543-.143.18-.043.397.01.571-.053.222-.079.127-.337.288-.45.104-.074.287-.01.406-.051a.607.607 0 00.376-.46c.016-.082.01-.145.039-.221.039-.103.111-.16.09-.293-.01-.062-.052-.12-.064-.187-.022-.114.002-.224 0-.337-.003-.2.017-.379-.078-.55-.38-.688-1.236-.929-1.975-.789-.18.034-.287.126-.442.207-.17.088-.139.166-.318.224-.081.026-.216.124-.215.224.001.115.005.051.012.169-.021.011-.021-.005-.03-.025m-7.644-.001a.247.247 0 01-.026.19c-.053.101-.112.062-.165.128a.636.636 0 00-.079.362c-.169.058-.009.227-.015.35-.002.05-.041.105-.045.161a.764.764 0 00.068.37c.097.198.268.413.435.544.19.148.365.572.608.631.177.042.384-.104.543-.143.18-.043.397.01.571-.053.222-.079.127-.337.288-.45.104-.074.287-.01.406-.051a.607.607 0 00.376-.46c.016-.082.01-.145.039-.221.039-.103.111-.16.09-.293-.01-.062-.052-.12-.064-.187-.022-.114.002-.224 0-.337-.003-.2.017-.379-.078-.55-.38-.688-1.236-.929-1.975-.789-.18.034-.287.126-.442.207-.17.088-.139.166-.318.224-.081.026-.216.124-.215.224.001.115.005.051.012.169-.021.011-.021-.005-.03-.025m-7.645-.001a.247.247 0 01-.026.19c-.053.101-.112.062-.165.128a.636.636 0 00-.079.362c-.169.058-.009.227-.015.35-.002.05-.041.105-.045.161a.764.764 0 00.068.37c.097.198.268.413.435.544.19.148.365.572.608.631.177.042.384-.104.543-.143.18-.043.397.01.571-.053.222-.079.127-.337.288-.45.104-.074.287-.01.406-.051a.607.607 0 00.376-.46c.016-.082.01-.145.039-.221.039-.103.111-.16.09-.293-.01-.062-.052-.12-.064-.187-.022-.114.002-.224 0-.337-.003-.2.017-.379-.078-.55-.38-.688-1.236-.929-1.975-.789-.18.034-.287.126-.442.207-.17.088-.139.166-.318.224-.081.026-.216.124-.215.224.001.115.005.051.012.169-.021.011-.021-.005-.03-.025m-7.644-.001a.247.247 0 01-.026.19c-.053.101-.112.062-.165.128a.636.636 0 00-.079.362c-.169.058-.009.227-.015.35-.002.05-.041.105-.045.161a.764.764 0 00.068.37c.097.198.268.413.435.544.19.148.365.572.608.631.177.042.384-.104.543-.143.18-.043.397.01.571-.053.222-.079.127-.337.288-.45.104-.074.287-.01.406-.051a.607.607 0 00.376-.46c.016-.082.01-.145.039-.221.039-.103.111-.16.09-.293-.01-.062-.052-.12-.064-.187-.022-.114.002-.224 0-.337-.003-.2.017-.379-.078-.55-.38-.688-1.236-.929-1.975-.789-.18.034-.287.126-.442.207-.17.088-.139.166-.318.224-.081.026-.216.124-.215.224.001.115.005.051.012.169-.021.011-.021-.005-.03-.025m-7.644-.001a.247.247 0 01-.026.19c-.053.101-.112.062-.165.128a.636.636 0 00-.079.362c-.169.058-.009.227-.015.35-.002.05-.041.105-.045.161a.764.764 0 00.068.37c.097.198.268.413.435.544.19.148.365.572.608.631.177.042.384-.104.543-.143.18-.043.397.01.571-.053.222-.079.127-.337.288-.45.104-.074.287-.01.406-.051a.607.607 0 00.376-.46c.016-.082.01-.145.039-.221.039-.103.111-.16.09-.293-.01-.062-.052-.12-.064-.187-.022-.114.002-.224 0-.337-.003-.2.017-.379-.078-.55-.38-.688-1.236-.929-1.975-.789-.18.034-.287.126-.442.207-.17.088-.139.166-.318.224-.081.026-.216.124-.215.224.001.115.005.051.012.169-.021.011-.021-.005-.03-.025m-7.645-.001a.247.247 0 01-.026.19c-.053.101-.112.062-.165.128a.636.636 0 00-.079.362c-.169.058-.009.227-.015.35-.002.05-.041.105-.045.161a.764.764 0 00.068.37c.097.198.268.413.435.544.19.148.365.572.608.631.177.042.384-.104.543-.143.18-.043.397.01.571-.053.222-.079.127-.337.288-.45.104-.074.287-.01.406-.051a.607.607 0 00.376-.46c.016-.082.01-.145.039-.221.039-.103.111-.16.09-.293-.01-.062-.052-.12-.064-.187-.022-.114.002-.224 0-.337-.003-.2.017-.379-.078-.55-.38-.688-1.236-.929-1.975-.789-.18.034-.287.126-.442.207-.17.088-.139.166-.318.224-.081.026-.216.124-.215.224.001.115.005.051.012.169-.021.011-.021-.005-.03-.025m-7.644-.001a.247.247 0 01-.026.19c-.053.101-.112.062-.165.128a.636.636 0 00-.079.362c-.169.058-.009.227-.015.35-.002.05-.041.105-.045.161a.764.764 0 00.068.37c.097.198.268.413.435.544.19.148.365.572.608.631.177.042.384-.104.543-.143.18-.043.397.01.571-.053.222-.079.127-.337.288-.45.104-.074.287-.01.406-.051a.607.607 0 00.376-.46c.016-.082.01-.145.039-.221.039-.103.111-.16.09-.293-.01-.062-.052-.12-.064-.187-.022-.114.002-.224 0-.337-.003-.2.017-.379-.078-.55-.38-.688-1.236-.929-1.975-.789-.18.034-.287.126-.442.207-.17.088-.139.166-.318.224-.081.026-.216.124-.215.224.001.115.005.051.012.169-.02.012-.021-.004-.03-.024m-7.645-.002a.247.247 0 01-.026.19c-.053.101-.112.062-.165.128a.636.636 0 00-.079.362c-.169.058-.01.227-.015.35-.002.05-.041.105-.045.161a.764.764 0 00.068.37c.097.198.268.413.435.544.19.148.365.572.608.631.177.042.384-.104.543-.143.18-.043.397.01.571-.053.222-.079.127-.337.288-.45.104-.074.287-.01.406-.051a.607.607 0 00.376-.46c.016-.082.01-.145.039-.221.039-.103.111-.16.09-.293-.01-.062-.052-.12-.064-.187-.022-.114.002-.224 0-.337-.003-.2.017-.379-.078-.55-.38-.688-1.236-.929-1.975-.789-.18.034-.287.126-.442.207-.17.088-.139.166-.318.224-.081.026-.216.124-.215.224.001.115.005.051.012.169-.021.011-.021-.005-.03-.025m68.96 7.651a.247.247 0 01-.026.19c-.053.101-.112.062-.165.128a.636.636 0 00-.079.362c-.169.058-.01.227-.015.35-.002.05-.041.105-.045.161a.764.764 0 00.068.37c.097.198.268.413.435.544.19.148.365.572.608.631.177.042.384-.104.543-.143.18-.043.397.01.571-.053.222-.079.127-.337.288-.45.104-.074.287-.01.406-.051a.607.607 0 00.376-.46c.016-.082.01-.145.039-.221.039-.103.111-.16.09-.293-.01-.062-.052-.12-.064-.187-.022-.114.002-.224 0-.337-.003-.2.017-.379-.078-.55-.38-.688-1.236-.929-1.975-.789-.18.034-.287.126-.442.207-.17.088-.139.166-.318.224-.081.026-.216.124-.215.224.001.115.005.051.012.169-.021.011-.021-.005-.03-.025m-7.645-.001a.247.247 0 01-.026.19c-.053.101-.112.062-.165.128a.636.636 0 00-.079.362c-.169.058-.009.227-.015.35-.002.05-.041.105-.045.161a.764.764 0 00.068.37c.097.198.268.413.435.544.19.148.365.572.608.631.177.042.384-.104.543-.143.18-.043.397.01.571-.053.222-.079.127-.337.288-.45.104-.074.287-.01.406-.051a.607.607 0 00.376-.46c.016-.082.01-.145.039-.221.039-.103.111-.16.09-.293-.01-.062-.052-.12-.064-.187-.022-.114.002-.224 0-.337-.003-.2.017-.379-.078-.55-.38-.688-1.236-.929-1.975-.789-.18.034-.287.126-.442.207-.17.088-.139.166-.318.224-.081.026-.216.124-.215.224.001.115.005.051.012.169-.021.011-.021-.005-.03-.025m-7.644-.001a.247.247 0 01-.026.19c-.053.101-.112.062-.165.128a.636.636 0 00-.079.362c-.169.058-.009.227-.015.35-.002.05-.041.105-.045.161a.764.764 0 00.068.37c.097.198.268.413.435.544.19.148.365.572.608.631.177.042.384-.104.543-.143.18-.043.397.01.571-.053.222-.079.127-.337.288-.45.104-.074.287-.01.406-.051a.607.607 0 00.376-.46c.016-.082.01-.145.039-.221.039-.103.111-.16.09-.293-.01-.062-.052-.12-.064-.187-.022-.114.002-.224 0-.337-.003-.2.017-.379-.078-.55-.38-.688-1.236-.929-1.975-.789-.18.034-.287.126-.442.207-.17.088-.139.166-.318.224-.081.026-.216.124-.215.224.001.115.005.051.012.169-.021.011-.021-.005-.03-.025m-7.644-.001a.247.247 0 01-.026.19c-.053.101-.112.062-.165.128a.636.636 0 00-.079.362c-.169.058-.009.227-.015.35-.002.05-.041.105-.045.161a.764.764 0 00.068.37c.097.198.268.413.435.544.19.148.365.572.608.631.177.042.384-.104.543-.143.18-.043.397.01.571-.053.222-.079.127-.337.288-.45.104-.074.287-.01.406-.051a.607.607 0 00.376-.46c.016-.082.01-.145.039-.221.039-.103.111-.16.09-.293-.01-.062-.052-.12-.064-.187-.022-.114.002-.224 0-.337-.003-.2.017-.379-.078-.55-.38-.688-1.236-.929-1.975-.789-.18.034-.287.126-.442.207-.17.088-.139.166-.318.224-.081.026-.216.124-.215.224.001.115.005.051.012.169-.021.011-.021-.005-.03-.025m-7.645-.001a.247.247 0 01-.026.19c-.053.101-.112.062-.165.128a.636.636 0 00-.079.362c-.169.058-.009.227-.015.35-.002.05-.041.105-.045.161a.764.764 0 00.068.37c.097.198.268.413.435.544.19.148.365.572.608.631.177.042.384-.104.543-.143.18-.043.397.01.571-.053.222-.079.127-.337.288-.45.104-.074.287-.01.406-.051a.607.607 0 00.376-.46c.016-.082.01-.145.039-.221.039-.103.111-.16.09-.293-.01-.062-.052-.12-.064-.187-.022-.114.002-.224 0-.337-.003-.2.017-.379-.078-.55-.38-.688-1.236-.929-1.975-.789-.18.034-.287.126-.442.207-.17.088-.139.166-.318.224-.081.026-.216.124-.215.224.001.115.005.051.012.169-.021.011-.021-.005-.03-.025m-7.644-.001a.247.247 0 01-.026.19c-.053.101-.112.062-.165.128a.636.636 0 00-.079.362c-.169.058-.009.227-.015.35-.002.05-.041.105-.045.161a.764.764 0 00.068.37c.097.198.268.413.435.544.19.148.365.572.608.631.177.042.384-.104.543-.143.18-.043.397.01.571-.053.222-.079.127-.337.288-.45.104-.074.287-.01.406-.051a.607.607 0 00.376-.46c.016-.082.01-.145.039-.221.039-.103.111-.16.09-.293-.01-.062-.052-.12-.064-.187-.022-.114.002-.224 0-.337-.003-.2.017-.379-.078-.55-.38-.688-1.236-.929-1.975-.789-.18.034-.287.126-.442.207-.17.088-.139.166-.318.224-.081.026-.216.124-.215.224.001.115.005.051.012.169-.021.011-.021-.005-.03-.025m-7.644-.001a.247.247 0 01-.026.19c-.053.101-.112.062-.165.128a.636.636 0 00-.079.362c-.169.058-.009.227-.015.35-.002.05-.041.105-.045.161a.764.764 0 00.068.37c.097.198.268.413.435.544.19.148.365.572.608.631.177.042.384-.104.543-.143.18-.043.397.01.571-.053.222-.079.127-.337.288-.45.104-.074.287-.01.406-.051a.607.607 0 00.376-.46c.016-.082.01-.145.039-.221.039-.103.111-.16.09-.293-.01-.062-.052-.12-.064-.187-.022-.114.002-.224 0-.337-.003-.2.017-.379-.078-.55-.38-.688-1.236-.929-1.975-.789-.18.034-.287.126-.442.207-.17.088-.139.166-.318.224-.081.026-.216.124-.215.224.001.115.005.051.012.169-.021.011-.021-.005-.03-.025m-7.645-.001a.247.247 0 01-.026.19c-.053.101-.112.062-.165.128a.636.636 0 00-.079.362c-.169.058-.009.227-.015.35-.002.05-.041.105-.045.161a.764.764 0 00.068.37c.097.198.268.413.435.544.19.148.365.572.608.631.177.042.384-.104.543-.143.18-.043.397.01.571-.053.222-.079.127-.337.288-.45.104-.074.287-.01.406-.051a.607.607 0 00.376-.46c.016-.082.01-.145.039-.221.039-.103.111-.16.09-.293-.01-.062-.052-.12-.064-.187-.022-.114.002-.224 0-.337-.003-.2.017-.379-.078-.55-.38-.688-1.236-.929-1.975-.789-.18.034-.287.126-.442.207-.17.088-.139.166-.318.224-.081.026-.216.124-.215.224.001.115.005.051.012.169-.021.011-.021-.005-.03-.025m-7.644-.001a.247.247 0 01-.026.19c-.053.101-.112.062-.165.128a.636.636 0 00-.079.362c-.169.058-.009.227-.015.35-.002.05-.041.105-.045.161a.764.764 0 00.068.37c.097.198.268.413.435.544.19.148.365.572.608.631.177.042.384-.104.543-.143.18-.043.397.01.571-.053.222-.079.127-.337.288-.45.104-.074.287-.01.406-.051a.607.607 0 00.376-.46c.016-.082.01-.145.039-.221.039-.103.111-.16.09-.293-.01-.062-.052-.12-.064-.187-.022-.114.002-.224 0-.337-.003-.2.017-.379-.078-.55-.38-.688-1.236-.929-1.975-.789-.18.034-.287.126-.442.207-.17.088-.139.166-.318.224-.081.026-.216.124-.215.224.001.115.005.051.012.169-.021.011-.021-.005-.03-.025M.495-33.39a.247.247 0 01-.026.19c-.053.101-.112.062-.165.128a.636.636 0 00-.079.362c-.169.058-.01.227-.015.35-.002.05-.041.105-.045.161a.764.764 0 00.068.37c.097.198.268.413.435.544.19.148.365.572.608.631.177.042.384-.104.543-.143.18-.043.397.01.571-.053.222-.079.127-.337.288-.45.104-.074.287-.01.406-.051a.607.607 0 00.376-.46c.016-.082.01-.145.039-.221.039-.103.111-.16.09-.293-.01-.062-.052-.12-.064-.187-.022-.114.002-.224 0-.337-.003-.2.017-.379-.078-.55-.38-.688-1.236-.929-1.975-.789-.18.034-.287.126-.442.207-.17.088-.139.166-.318.224-.081.026-.216.124-.215.224.003.117.006.053.013.171-.021.011-.021-.005-.03-.025m68.959 7.651a.247.247 0 01-.026.19c-.053.101-.112.062-.165.128a.636.636 0 00-.079.362c-.169.058-.01.227-.015.35-.002.05-.041.105-.045.161a.764.764 0 00.068.37c.097.198.268.413.435.544.19.148.365.572.608.631.177.042.384-.104.543-.143.18-.043.397.01.571-.053.222-.079.127-.337.288-.45.104-.074.287-.01.406-.051a.607.607 0 00.376-.46c.016-.082.01-.145.039-.221.039-.103.111-.16.09-.293-.01-.062-.052-.12-.064-.187-.022-.114.002-.224 0-.337-.003-.2.017-.379-.078-.55-.38-.688-1.236-.929-1.975-.789-.18.034-.287.126-.442.207-.17.088-.139.166-.318.224-.081.026-.216.124-.215.224.001.115.005.051.012.169-.021.011-.021-.005-.03-.025m-7.645-.001a.247.247 0 01-.026.19c-.053.101-.112.062-.165.128a.636.636 0 00-.079.362c-.169.058-.009.227-.015.35-.002.05-.041.105-.045.161a.764.764 0 00.068.37c.097.198.268.413.435.544.19.148.365.572.608.631.177.042.384-.104.543-.143.18-.043.397.01.571-.053.222-.079.127-.337.288-.45.104-.074.287-.01.406-.051a.607.607 0 00.376-.46c.016-.082.01-.145.039-.221.039-.103.111-.16.09-.293-.01-.062-.052-.12-.064-.187-.022-.114.002-.224 0-.337-.003-.2.017-.379-.078-.55-.38-.688-1.236-.929-1.975-.789-.18.034-.287.126-.442.207-.17.088-.139.166-.318.224-.081.026-.216.124-.215.224.001.115.005.051.012.169-.021.011-.021-.005-.03-.025m-7.644-.001a.247.247 0 01-.026.19c-.053.101-.112.062-.165.128a.636.636 0 00-.079.362c-.169.058-.009.227-.015.35-.002.05-.041.105-.045.161a.764.764 0 00.068.37c.097.198.268.413.435.544.19.148.365.572.608.631.177.042.384-.104.543-.143.18-.043.397.01.571-.053.222-.079.127-.337.288-.45.104-.074.287-.01.406-.051a.607.607 0 00.376-.46c.016-.082.01-.145.039-.221.039-.103.111-.16.09-.293-.01-.062-.052-.12-.064-.187-.022-.114.002-.224 0-.337-.003-.2.017-.379-.078-.55-.38-.688-1.236-.929-1.975-.789-.18.034-.287.126-.442.207-.17.088-.139.166-.318.224-.081.026-.216.124-.215.224.001.115.005.051.012.169-.021.011-.021-.005-.03-.025m-7.644-.001a.247.247 0 01-.026.19c-.053.101-.112.062-.165.128a.636.636 0 00-.079.362c-.169.058-.009.227-.015.35-.002.05-.041.105-.045.161a.764.764 0 00.068.37c.097.198.268.413.435.544.19.148.365.572.608.631.177.042.384-.104.543-.143.18-.043.397.01.571-.053.222-.079.127-.337.288-.45.104-.074.287-.01.406-.051a.607.607 0 00.376-.46c.016-.082.01-.145.039-.221.039-.103.111-.16.09-.293-.01-.062-.052-.12-.064-.187-.022-.114.002-.224 0-.337-.003-.2.017-.379-.078-.55-.38-.688-1.236-.929-1.975-.789-.18.034-.287.126-.442.207-.17.088-.139.166-.318.224-.081.026-.216.124-.215.224.001.115.005.051.012.169-.021.011-.021-.005-.03-.025m-7.645-.001a.247.247 0 01-.026.19c-.053.101-.112.062-.165.128a.636.636 0 00-.079.362c-.169.058-.009.227-.015.35-.002.05-.041.105-.045.161a.764.764 0 00.068.37c.097.198.268.413.435.544.19.148.365.572.608.631.177.042.384-.104.543-.143.18-.043.397.01.571-.053.222-.079.127-.337.288-.45.104-.074.287-.01.406-.051a.607.607 0 00.376-.46c.016-.082.01-.145.039-.221.039-.103.111-.16.09-.293-.01-.062-.052-.12-.064-.187-.022-.114.002-.224 0-.337-.003-.2.017-.379-.078-.55-.38-.688-1.236-.929-1.975-.789-.18.034-.287.126-.442.207-.17.088-.139.166-.318.224-.081.026-.216.124-.215.224.001.115.005.051.012.169-.021.011-.021-.005-.03-.025m-7.644-.001a.247.247 0 01-.026.19c-.053.101-.112.062-.165.128a.636.636 0 00-.079.362c-.169.058-.009.227-.015.35-.002.05-.041.105-.045.161a.764.764 0 00.068.37c.097.198.268.413.435.544.19.148.365.572.608.631.177.042.384-.104.543-.143.18-.043.397.01.571-.053.222-.079.127-.337.288-.45.104-.074.287-.01.406-.051a.607.607 0 00.376-.46c.016-.082.01-.145.039-.221.039-.103.111-.16.09-.293-.01-.062-.052-.12-.064-.187-.022-.114.002-.224 0-.337-.003-.2.017-.379-.078-.55-.38-.688-1.236-.929-1.975-.789-.18.034-.287.126-.442.207-.17.088-.139.166-.318.224-.081.026-.216.124-.215.224.001.115.005.051.012.169-.021.011-.021-.005-.03-.025m-7.644-.001a.247.247 0 01-.026.19c-.053.101-.112.062-.165.128a.636.636 0 00-.079.362c-.169.058-.009.227-.015.35-.002.05-.041.105-.045.161a.764.764 0 00.068.37c.097.198.268.413.435.544.19.148.365.572.608.631.177.042.384-.104.543-.143.18-.043.397.01.571-.053.222-.079.127-.337.288-.45.104-.074.287-.01.406-.051a.607.607 0 00.376-.46c.016-.082.01-.145.039-.221.039-.103.111-.16.09-.293-.01-.062-.052-.12-.064-.187-.022-.114.002-.224 0-.337-.003-.2.017-.379-.078-.55-.38-.688-1.236-.929-1.975-.789-.18.034-.287.126-.442.207-.17.088-.139.166-.318.224-.081.026-.216.124-.215.224.001.115.005.051.012.169-.021.011-.021-.005-.03-.025m-7.645-.001a.247.247 0 01-.026.19c-.053.101-.112.062-.165.128a.636.636 0 00-.079.362c-.169.058-.009.227-.015.35-.002.05-.041.105-.045.161a.764.764 0 00.068.37c.097.198.268.413.435.544.19.148.365.572.608.631.177.042.384-.104.543-.143.18-.043.397.01.571-.053.222-.079.127-.337.288-.45.104-.074.287-.01.406-.051a.607.607 0 00.376-.46c.016-.082.01-.145.039-.221.039-.103.111-.16.09-.293-.01-.062-.052-.12-.064-.187-.022-.114.002-.224 0-.337-.003-.2.017-.379-.078-.55-.38-.688-1.236-.929-1.975-.789-.18.034-.287.126-.442.207-.17.088-.139.166-.318.224-.081.026-.216.124-.215.224.001.115.005.051.012.169-.021.011-.021-.005-.03-.025m-7.644-.001a.247.247 0 01-.026.19c-.053.101-.112.062-.165.128a.636.636 0 00-.079.362c-.169.058-.009.227-.015.35-.002.05-.041.105-.045.161a.764.764 0 00.068.37c.097.198.268.413.435.544.19.148.365.572.608.631.177.042.384-.104.543-.143.18-.043.397.01.571-.053.222-.079.127-.337.288-.45.104-.074.287-.01.406-.051a.607.607 0 00.376-.46c.016-.082.01-.145.039-.221.039-.103.111-.16.09-.293-.01-.062-.052-.12-.064-.187-.022-.114.002-.224 0-.337-.003-.2.017-.379-.078-.55-.38-.688-1.236-.929-1.975-.789-.18.034-.287.126-.442.207-.17.088-.139.166-.318.224-.081.026-.216.124-.215.224.001.115.005.051.012.169-.021.011-.021-.005-.03-.025m-7.645-.001a.247.247 0 01-.026.19c-.053.101-.112.062-.165.128a.636.636 0 00-.079.362c-.169.058-.01.227-.015.35-.002.05-.041.105-.045.161a.764.764 0 00.068.37c.097.198.268.413.435.544.19.148.365.572.608.631.177.042.384-.104.543-.143.18-.043.397.01.571-.053.222-.079.127-.337.288-.45.104-.074.287-.01.406-.051a.607.607 0 00.376-.46c.016-.082.01-.145.039-.221.039-.103.111-.16.09-.293-.01-.062-.052-.12-.064-.187-.022-.114.002-.224 0-.337-.003-.2.017-.379-.078-.55-.38-.688-1.236-.929-1.975-.789-.18.034-.287.126-.442.207-.17.088-.139.166-.318.224-.081.026-.216.124-.215.224.001.115.005.051.012.169-.021.011-.021-.005-.03-.025m68.96 7.651a.247.247 0 01-.026.19c-.053.101-.112.062-.165.128a.636.636 0 00-.079.362c-.169.058-.01.227-.015.35-.002.05-.041.105-.045.161a.764.764 0 00.068.37c.097.198.268.413.435.544.19.148.365.572.608.631.177.042.384-.104.543-.143.18-.043.397.01.571-.053.222-.079.127-.337.288-.45.104-.074.287-.01.406-.051a.607.607 0 00.376-.46c.016-.082.01-.145.039-.221.039-.103.111-.16.09-.293-.01-.062-.052-.12-.064-.187-.022-.114.002-.224 0-.337-.003-.2.017-.379-.078-.55-.38-.688-1.236-.929-1.975-.789-.18.034-.287.126-.442.207-.17.088-.139.166-.318.224-.081.026-.216.124-.215.224.001.115.005.051.012.169-.021.011-.021-.005-.03-.025m-7.645-.001a.247.247 0 01-.026.19c-.053.101-.112.062-.165.128a.636.636 0 00-.079.362c-.169.058-.009.227-.015.35-.002.05-.041.105-.045.161a.764.764 0 00.068.37c.097.198.268.413.435.544.19.148.365.572.608.631.177.042.384-.104.543-.143.18-.043.397.01.571-.053.222-.079.127-.337.288-.45.104-.074.287-.01.406-.051a.607.607 0 00.376-.46c.016-.082.01-.145.039-.221.039-.103.111-.16.09-.293-.01-.062-.052-.12-.064-.187-.022-.114.002-.224 0-.337-.003-.2.017-.379-.078-.55-.38-.688-1.236-.929-1.975-.789-.18.034-.287.126-.442.207-.17.088-.139.166-.318.224-.081.026-.216.124-.215.224.001.115.005.051.012.169-.021.011-.021-.005-.03-.025m-7.644-.001a.247.247 0 01-.026.19c-.053.101-.112.062-.165.128a.636.636 0 00-.079.362c-.169.058-.009.227-.015.35-.002.05-.041.105-.045.161a.764.764 0 00.068.37c.097.198.268.413.435.544.19.148.365.572.608.631.177.042.384-.104.543-.143.18-.043.397.01.571-.053.222-.079.127-.337.288-.45.104-.074.287-.01.406-.051a.607.607 0 00.376-.46c.016-.082.01-.145.039-.221.039-.103.111-.16.09-.293-.01-.062-.052-.12-.064-.187-.022-.114.002-.224 0-.337-.003-.2.017-.379-.078-.55-.38-.688-1.236-.929-1.975-.789-.18.034-.287.126-.442.207-.17.088-.139.166-.318.224-.081.026-.216.124-.215.224.001.115.005.051.012.169-.021.011-.021-.005-.03-.025m-7.644-.001a.247.247 0 01-.026.19c-.053.101-.112.062-.165.128a.636.636 0 00-.079.362c-.169.058-.009.227-.015.35-.002.05-.041.105-.045.161a.764.764 0 00.068.37c.097.198.268.413.435.544.19.148.365.572.608.631.177.042.384-.104.543-.143.18-.043.397.01.571-.053.222-.079.127-.337.288-.45.104-.074.287-.01.406-.051a.607.607 0 00.376-.46c.016-.082.01-.145.039-.221.039-.103.111-.16.09-.293-.01-.062-.052-.12-.064-.187-.022-.114.002-.224 0-.337-.003-.2.017-.379-.078-.55-.38-.688-1.236-.929-1.975-.789-.18.034-.287.126-.442.207-.17.088-.139.166-.318.224-.081.026-.216.124-.215.224.001.115.005.051.012.169-.021.011-.021-.005-.03-.025m-7.645-.001a.247.247 0 01-.026.19c-.053.101-.112.062-.165.128a.636.636 0 00-.079.362c-.169.058-.009.227-.015.35-.002.05-.041.105-.045.161a.764.764 0 00.068.37c.097.198.268.413.435.544.19.148.365.572.608.631.177.042.384-.104.543-.143.18-.043.397.01.571-.053.222-.079.127-.337.288-.45.104-.074.287-.01.406-.051a.607.607 0 00.376-.46c.016-.082.01-.145.039-.221.039-.103.111-.16.09-.293-.01-.062-.052-.12-.064-.187-.022-.114.002-.224 0-.337-.003-.2.017-.379-.078-.55-.38-.688-1.236-.929-1.975-.789-.18.034-.287.126-.442.207-.17.088-.139.166-.318.224-.081.026-.216.124-.215.224.001.115.005.051.012.169-.021.011-.021-.005-.03-.025m-7.644-.001a.247.247 0 01-.026.19c-.053.101-.112.062-.165.128a.636.636 0 00-.079.362c-.169.058-.009.227-.015.35-.002.05-.041.105-.045.161a.764.764 0 00.068.37c.097.198.268.413.435.544.19.148.365.572.608.631.177.042.384-.104.543-.143.18-.043.397.01.571-.053.222-.079.127-.337.288-.45.104-.074.287-.01.406-.051a.607.607 0 00.376-.46c.016-.082.01-.145.039-.221.039-.103.111-.16.09-.293-.01-.062-.052-.12-.064-.187-.022-.114.002-.224 0-.337-.003-.2.017-.379-.078-.55-.38-.688-1.236-.929-1.975-.789-.18.034-.287.126-.442.207-.17.088-.139.166-.318.224-.081.026-.216.124-.215.224.001.115.005.051.012.169-.021.011-.021-.005-.03-.025m-7.644-.001a.247.247 0 01-.026.19c-.053.101-.112.062-.165.128a.636.636 0 00-.079.362c-.169.058-.009.227-.015.35-.002.05-.041.105-.045.161a.764.764 0 00.068.37c.097.198.268.413.435.544.19.148.365.572.608.631.177.042.384-.104.543-.143.18-.043.397.01.571-.053.222-.079.127-.337.288-.45.104-.074.287-.01.406-.051a.607.607 0 00.376-.46c.016-.082.01-.145.039-.221.039-.103.111-.16.09-.293-.01-.062-.052-.12-.064-.187-.022-.114.002-.224 0-.337-.003-.2.017-.379-.078-.55-.38-.688-1.236-.929-1.975-.789-.18.034-.287.126-.442.207-.17.088-.139.166-.318.224-.081.026-.216.124-.215.224.001.115.005.051.012.169-.021.011-.021-.005-.03-.025m-7.645-.001a.247.247 0 01-.026.19c-.053.101-.112.062-.165.128a.636.636 0 00-.079.362c-.169.058-.009.227-.015.35-.002.05-.041.105-.045.161a.764.764 0 00.068.37c.097.198.268.413.435.544.19.148.365.572.608.631.177.042.384-.104.543-.143.18-.043.397.01.571-.053.222-.079.127-.337.288-.45.104-.074.287-.01.406-.051a.607.607 0 00.376-.46c.016-.082.01-.145.039-.221.039-.103.111-.16.09-.293-.01-.062-.052-.12-.064-.187-.022-.114.002-.224 0-.337-.003-.2.017-.379-.078-.55-.38-.688-1.236-.929-1.975-.789-.18.034-.287.126-.442.207-.17.088-.139.166-.318.224-.081.026-.216.124-.215.224.001.115.005.051.012.169-.021.011-.021-.005-.03-.025m-7.644-.001a.247.247 0 01-.026.19c-.053.101-.112.062-.165.128a.636.636 0 00-.079.362c-.169.058-.009.227-.015.35-.002.05-.041.105-.045.161a.764.764 0 00.068.37c.097.198.268.413.435.544.19.148.365.572.608.631.177.042.384-.104.543-.143.18-.043.397.01.571-.053.222-.079.127-.337.288-.45.104-.074.287-.01.406-.051a.607.607 0 00.376-.46c.016-.082.01-.145.039-.221.039-.103.111-.16.09-.293-.01-.062-.052-.12-.064-.187-.022-.114.002-.224 0-.337-.003-.2.017-.379-.078-.55-.38-.688-1.236-.929-1.975-.789-.18.034-.287.126-.442.207-.17.088-.139.166-.318.224-.081.026-.216.124-.215.224.001.115.005.051.012.169-.021.011-.021-.005-.03-.025m-7.645-.001a.247.247 0 01-.026.19c-.053.101-.112.062-.165.128a.636.636 0 00-.079.362c-.169.058-.01.227-.015.35-.002.05-.041.105-.045.161a.764.764 0 00.068.37c.097.198.268.413.435.544.19.148.365.572.608.631.177.042.384-.104.543-.143.18-.043.397.01.571-.053.222-.079.127-.337.288-.45.104-.074.287-.01.406-.051a.607.607 0 00.376-.46c.016-.082.01-.145.039-.221.039-.103.111-.16.09-.293-.01-.062-.052-.12-.064-.187-.022-.114.002-.224 0-.337-.003-.2.017-.379-.078-.55-.38-.688-1.236-.929-1.975-.789-.18.034-.287.126-.442.207-.17.088-.139.166-.318.224-.081.026-.216.124-.215.224.003.117.006.052.013.17-.021.011-.021-.005-.03-.025m68.959 7.651a.247.247 0 01-.026.19c-.053.101-.112.062-.165.128a.636.636 0 00-.079.362c-.169.059-.01.228-.015.351-.002.05-.041.105-.045.161a.764.764 0 00.068.37c.097.198.268.413.435.544.19.148.365.572.608.631.177.042.384-.104.543-.143.18-.043.397.01.571-.053.222-.079.127-.337.288-.45.104-.074.287-.01.406-.051a.607.607 0 00.376-.46c.016-.082.01-.145.039-.221.039-.103.111-.16.09-.293-.01-.062-.052-.12-.064-.187-.022-.114.002-.224 0-.337-.003-.2.017-.379-.078-.55-.38-.688-1.236-.929-1.975-.789-.18.034-.287.126-.442.207-.17.088-.139.166-.318.224-.081.026-.216.124-.215.224.001.115.005.051.012.169-.021.011-.021-.005-.03-.025m-7.645-.002a.247.247 0 01-.026.19c-.053.101-.112.062-.165.128a.636.636 0 00-.079.362c-.169.058-.009.227-.015.35-.002.05-.041.105-.045.161a.764.764 0 00.068.37c.097.198.268.413.435.544.19.148.365.572.608.631.177.042.384-.104.543-.143.18-.043.397.01.571-.053.222-.079.127-.337.288-.45.104-.074.287-.01.406-.051a.607.607 0 00.376-.46c.016-.082.01-.145.039-.221.039-.103.111-.16.09-.293-.01-.062-.052-.12-.064-.187-.022-.114.002-.224 0-.337-.003-.2.017-.379-.078-.55-.38-.688-1.236-.929-1.975-.789-.18.034-.287.126-.442.207-.17.088-.139.166-.318.224-.081.026-.216.124-.215.224.001.115.005.051.012.169-.021.011-.021-.005-.03-.025m-7.644-.001a.247.247 0 01-.026.19c-.053.101-.112.062-.165.128a.636.636 0 00-.079.362c-.169.058-.009.227-.015.35-.002.05-.041.105-.045.161a.764.764 0 00.068.37c.097.198.268.413.435.544.19.148.365.572.608.631.177.042.384-.104.543-.143.18-.043.397.01.571-.053.222-.079.127-.337.288-.45.104-.074.287-.01.406-.051a.607.607 0 00.376-.46c.016-.082.01-.145.039-.221.039-.103.111-.16.09-.293-.01-.062-.052-.12-.064-.187-.022-.114.002-.224 0-.337-.003-.2.017-.379-.078-.55-.38-.688-1.236-.929-1.975-.789-.18.034-.287.126-.442.207-.17.088-.139.166-.318.224-.081.026-.216.124-.215.224.001.115.005.051.012.169-.021.011-.021-.005-.03-.025m-7.644-.001a.247.247 0 01-.026.19c-.053.101-.112.062-.165.128a.636.636 0 00-.079.362c-.169.058-.009.227-.015.35-.002.05-.041.105-.045.161a.764.764 0 00.068.37c.097.198.268.413.435.544.19.148.365.572.608.631.177.042.384-.104.543-.143.18-.043.397.01.571-.053.222-.079.127-.337.288-.45.104-.074.287-.01.406-.051a.607.607 0 00.376-.46c.016-.082.01-.145.039-.221.039-.103.111-.16.09-.293-.01-.062-.052-.12-.064-.187-.022-.114.002-.224 0-.337-.003-.2.017-.379-.078-.55-.38-.688-1.236-.929-1.975-.789-.18.034-.287.126-.442.207-.17.088-.139.166-.318.224-.081.026-.216.124-.215.224.001.115.005.051.012.169-.021.011-.021-.005-.03-.025m-7.645-.001a.247.247 0 01-.026.19c-.053.101-.112.062-.165.128a.636.636 0 00-.079.362c-.169.058-.009.227-.015.35-.002.05-.041.105-.045.161a.764.764 0 00.068.37c.097.198.268.413.435.544.19.148.365.572.608.631.177.042.384-.104.543-.143.18-.043.397.01.571-.053.222-.079.127-.337.288-.45.104-.074.287-.01.406-.051a.607.607 0 00.376-.46c.016-.082.01-.145.039-.221.039-.103.111-.16.09-.293-.01-.062-.052-.12-.064-.187-.022-.114.002-.224 0-.337-.003-.2.017-.379-.078-.55-.38-.688-1.236-.929-1.975-.789-.18.034-.287.126-.442.207-.17.088-.139.166-.318.224-.081.026-.216.124-.215.224.001.115.005.051.012.169-.021.011-.021-.005-.03-.025m-7.644-.001a.247.247 0 01-.026.19c-.053.101-.112.062-.165.128a.636.636 0 00-.079.362c-.169.058-.009.227-.015.35-.002.05-.041.105-.045.161a.764.764 0 00.068.37c.097.198.268.413.435.544.19.148.365.572.608.631.177.042.384-.104.543-.143.18-.043.397.01.571-.053.222-.079.127-.337.288-.45.104-.074.287-.01.406-.051a.607.607 0 00.376-.46c.016-.082.01-.145.039-.221.039-.103.111-.16.09-.293-.01-.062-.052-.12-.064-.187-.022-.114.002-.224 0-.337-.003-.2.017-.379-.078-.55-.38-.688-1.236-.929-1.975-.789-.18.034-.287.126-.442.207-.17.088-.139.166-.318.224-.081.026-.216.124-.215.224.001.115.005.051.012.169-.021.011-.021-.005-.03-.025m-7.644-.001a.247.247 0 01-.026.19c-.053.101-.112.062-.165.128a.636.636 0 00-.079.362c-.169.058-.009.227-.015.35-.002.05-.041.105-.045.161a.764.764 0 00.068.37c.097.198.268.413.435.544.19.148.365.572.608.631.177.042.384-.104.543-.143.18-.043.397.01.571-.053.222-.079.127-.337.288-.45.104-.074.287-.01.406-.051a.607.607 0 00.376-.46c.016-.082.01-.145.039-.221.039-.103.111-.16.09-.293-.01-.062-.052-.12-.064-.187-.022-.114.002-.224 0-.337-.003-.2.017-.379-.078-.55-.38-.688-1.236-.929-1.975-.789-.18.034-.287.126-.442.207-.17.088-.139.166-.318.224-.081.026-.216.124-.215.224.001.115.005.051.012.169-.021.011-.021-.005-.03-.025m-7.645-.001a.247.247 0 01-.026.19c-.053.101-.112.062-.165.128a.636.636 0 00-.079.362c-.169.058-.009.227-.015.35-.002.05-.041.105-.045.161a.764.764 0 00.068.37c.097.198.268.413.435.544.19.148.365.572.608.631.177.042.384-.104.543-.143.18-.043.397.01.571-.053.222-.078.128-.336.289-.449.104-.074.287-.01.406-.051a.607.607 0 00.376-.46c.016-.082.01-.145.039-.221.039-.103.111-.16.09-.293-.01-.062-.052-.12-.064-.187-.022-.114.002-.224 0-.337-.003-.2.017-.379-.078-.55-.38-.688-1.236-.929-1.975-.789-.18.034-.287.126-.442.207-.17.088-.139.166-.318.224-.081.026-.216.124-.215.224.001.115.005.051.012.169-.021.011-.021-.005-.03-.025m-7.645-.002a.247.247 0 01-.026.19c-.053.101-.112.062-.165.128a.641.641 0 00-.079.363c-.169.058-.01.227-.015.35-.003.049-.041.105-.045.161a.764.764 0 00.068.37c.097.198.268.413.435.544.19.148.365.572.608.631.177.042.384-.105.543-.143.18-.043.397.01.571-.053.222-.079.127-.337.288-.45.104-.074.287-.01.406-.051a.607.607 0 00.376-.46c.016-.082.01-.145.039-.221.039-.103.111-.16.09-.293-.01-.062-.052-.12-.064-.187-.022-.114.002-.224 0-.337-.003-.2.017-.379-.078-.55-.38-.688-1.236-.929-1.975-.789-.18.034-.287.126-.442.207-.17.088-.139.166-.318.224-.081.026-.216.124-.215.224.001.115.005.051.012.169-.021.011-.021-.005-.03-.025m-7.645-.002a.247.247 0 01-.026.19c-.053.101-.112.062-.165.128a.641.641 0 00-.079.363c-.169.058-.01.227-.015.35-.002.05-.041.105-.045.161a.764.764 0 00.068.37c.097.198.268.413.435.544.19.148.365.572.608.631.178.042.384-.105.543-.143.181-.043.398.01.572-.053.222-.079.127-.337.288-.45.104-.074.287-.01.406-.051a.607.607 0 00.376-.46c.016-.082.01-.144.039-.22.039-.103.111-.16.09-.293-.01-.062-.052-.12-.064-.187-.022-.114.002-.224 0-.337-.003-.2.017-.379-.078-.55-.38-.688-1.236-.929-1.975-.789-.18.034-.287.126-.442.207-.17.088-.139.166-.318.224-.081.026-.216.124-.215.224.001.115.005.051.012.169-.021.011-.021-.005-.03-.025m68.959 7.65a.242.242 0 01-.026.19c-.052.101-.113.063-.165.128a.628.628 0 00-.079.362c-.169.058-.01.227-.015.35-.002.05-.041.105-.045.161a.764.764 0 00.068.37c.097.198.268.413.435.544.19.148.365.572.608.631.177.042.384-.104.543-.143.18-.043.397.01.571-.053.222-.079.127-.337.288-.45.104-.074.287-.01.406-.051.2-.07.339-.263.376-.46.016-.082.01-.145.039-.221.038-.103.111-.16.09-.293-.01-.062-.051-.12-.064-.187-.021-.114.002-.224 0-.337-.003-.2.017-.379-.078-.55-.38-.688-1.236-.929-1.975-.789-.18.034-.287.126-.442.207-.17.088-.139.166-.318.224-.081.026-.215.124-.215.224.002.115.005.051.012.169-.021.011-.021-.005-.03-.025m-7.645-.001a.247.247 0 01-.026.19c-.052.101-.112.063-.165.128a.636.636 0 00-.079.362c-.169.058-.01.227-.015.35-.002.05-.041.105-.045.161a.764.764 0 00.068.37c.097.198.268.413.435.544.19.148.365.572.608.631.178.042.384-.104.544-.143.18-.043.397.01.571-.053.222-.079.127-.337.288-.45.104-.074.287-.01.406-.051a.607.607 0 00.376-.46c.016-.082.01-.145.039-.221.039-.103.111-.16.09-.293-.01-.062-.052-.12-.064-.187-.022-.114.002-.224 0-.337-.003-.2.017-.379-.078-.55-.38-.688-1.236-.929-1.975-.789-.18.034-.287.126-.442.207-.17.088-.139.166-.318.224-.081.028-.216.125-.215.225.001.115.005.051.012.169-.021.011-.021-.005-.03-.025m-7.645-.002a.247.247 0 01-.026.19c-.052.101-.112.063-.165.128a.636.636 0 00-.079.362c-.169.058-.01.227-.015.35-.002.05-.041.105-.045.161a.764.764 0 00.068.37c.097.198.268.413.435.544.19.148.365.572.608.631.178.042.384-.104.543-.143.18-.043.397.01.571-.053.222-.079.127-.337.288-.45.104-.074.287-.01.406-.051a.607.607 0 00.376-.46c.016-.082.01-.145.039-.221.039-.103.111-.16.09-.293-.01-.062-.052-.12-.064-.187-.022-.114.002-.224 0-.337-.003-.2.017-.379-.078-.55-.38-.688-1.236-.929-1.975-.789-.18.034-.287.126-.442.207-.17.088-.139.166-.318.224-.08.028-.215.125-.214.225.001.115.005.051.012.169-.021.011-.021-.005-.03-.025m-7.645-.002a.247.247 0 01-.026.19c-.053.101-.112.062-.165.128a.636.636 0 00-.079.362c-.169.058-.01.227-.015.35-.002.05-.041.105-.045.161a.764.764 0 00.068.37c.097.198.268.413.435.544.19.148.365.572.608.631.177.042.384-.104.543-.143.18-.043.397.01.571-.053.222-.079.127-.337.288-.45.104-.074.287-.01.406-.051a.607.607 0 00.376-.46c.016-.082.01-.145.039-.221.039-.103.111-.16.09-.293-.01-.062-.052-.12-.064-.187-.022-.114.002-.224 0-.337-.003-.2.017-.379-.078-.55-.38-.688-1.236-.929-1.975-.789-.18.034-.287.126-.442.207-.17.088-.139.166-.318.224-.081.028-.216.125-.215.225.001.115.005.051.012.169-.021.011-.021-.005-.03-.025m-7.645-.002a.247.247 0 01-.026.19c-.053.101-.112.062-.165.128a.636.636 0 00-.079.362c-.169.058-.01.227-.015.35-.002.05-.041.105-.045.161a.764.764 0 00.068.37c.097.198.268.413.435.544.19.148.365.572.608.631.178.042.384-.104.544-.143.18-.043.397.01.571-.053.222-.079.127-.337.288-.45.104-.074.287-.01.406-.051a.607.607 0 00.376-.46c.016-.082.01-.145.039-.221.039-.103.111-.16.09-.293-.01-.062-.052-.12-.064-.187-.022-.114.002-.224 0-.337-.003-.2.017-.379-.078-.55-.38-.688-1.236-.929-1.975-.789-.18.034-.287.126-.442.207-.17.088-.139.166-.318.224-.081.028-.216.125-.215.225.001.115.005.051.012.169-.021.011-.021-.005-.03-.025m-7.645-.002a.247.247 0 01-.026.19c-.053.101-.112.062-.165.128a.636.636 0 00-.079.362c-.169.058-.01.227-.015.35-.002.05-.041.105-.045.161a.764.764 0 00.068.37c.097.198.268.413.435.544.19.148.365.572.608.631.177.042.384-.104.543-.143.18-.043.397.01.571-.053.222-.079.127-.337.288-.45.104-.074.287-.01.406-.051a.607.607 0 00.376-.46c.016-.082.01-.145.039-.221.039-.103.111-.16.09-.293-.01-.062-.052-.12-.064-.187-.022-.114.002-.224 0-.337-.003-.2.017-.379-.078-.55-.38-.688-1.236-.929-1.975-.789-.18.034-.287.126-.442.207-.17.088-.139.166-.318.224-.081.028-.215.125-.214.225.001.115.005.051.012.169-.021.011-.021-.005-.03-.025m-7.645-.002a.247.247 0 01-.026.19c-.053.101-.112.062-.165.128a.636.636 0 00-.079.362c-.169.058-.01.227-.015.35-.002.05-.041.105-.045.161a.764.764 0 00.068.37c.097.198.268.413.435.544.19.148.365.572.608.631.177.042.384-.104.543-.143.18-.043.397.01.571-.053.222-.079.127-.337.288-.45.104-.074.287-.01.406-.051a.607.607 0 00.376-.46c.016-.082.01-.145.039-.221.039-.103.111-.16.09-.293-.01-.062-.052-.12-.064-.187-.022-.114.002-.224 0-.337-.003-.2.017-.379-.078-.55-.38-.688-1.236-.929-1.975-.789-.18.034-.287.126-.442.207-.17.088-.139.166-.318.224-.081.026-.216.124-.215.224.001.115.005.051.012.169-.021.011-.021-.005-.03-.025m-7.645-.001a.247.247 0 01-.026.19c-.053.101-.112.062-.165.128a.636.636 0 00-.079.362c-.169.058-.01.227-.015.35-.002.05-.041.105-.045.161a.764.764 0 00.068.37c.097.198.268.413.435.544.19.148.365.572.608.631.177.042.384-.104.543-.143.18-.043.397.01.571-.053.222-.079.127-.337.288-.45.104-.074.287-.01.406-.051a.607.607 0 00.376-.46c.016-.082.01-.145.039-.221.039-.103.111-.16.09-.293-.01-.062-.052-.12-.064-.187-.022-.114.002-.224 0-.337-.003-.2.017-.379-.078-.55-.38-.688-1.236-.929-1.975-.789-.18.034-.287.126-.442.207-.17.088-.139.166-.318.224-.081.026-.216.124-.215.224.001.115.005.051.012.169-.02.012-.021-.004-.03-.024m-7.644-.002a.247.247 0 01-.026.19c-.053.101-.112.063-.165.128a.636.636 0 00-.079.362c-.169.058-.01.227-.015.35-.003.05-.041.105-.045.161a.764.764 0 00.068.37c.097.198.268.413.435.544.19.148.365.572.608.631.177.042.384-.104.543-.143.18-.043.397.01.571-.053.222-.079.127-.337.288-.45.104-.074.287-.01.406-.051a.607.607 0 00.376-.46c.016-.082.01-.145.039-.221.039-.103.111-.16.09-.293-.01-.062-.052-.12-.064-.187-.022-.114.002-.224 0-.337-.003-.2.017-.379-.078-.55-.38-.688-1.236-.929-1.975-.789-.179.036-.286.128-.441.209-.17.088-.139.166-.318.224-.082.026-.216.123-.215.223.001.115.005.051.011.169-.02.011-.021-.005-.03-.025M.495-2.778a.242.242 0 01-.026.19c-.052.101-.113.063-.165.128a.63.63 0 00-.079.362c-.169.058-.01.227-.015.35-.002.05-.041.105-.045.161a.764.764 0 00.068.37c.097.198.268.413.435.544.19.148.365.572.608.631.178.042.384-.104.543-.143.181-.043.398.01.572-.052.222-.079.127-.337.288-.45.104-.074.287-.01.406-.051.2-.07.339-.263.376-.46.016-.082.01-.145.039-.221.038-.103.111-.16.09-.293-.01-.062-.051-.12-.064-.187-.021-.114.002-.224 0-.337-.003-.2.017-.379-.078-.55-.38-.688-1.236-.929-1.975-.789-.18.035-.286.127-.442.208-.17.088-.139.166-.318.224-.081.026-.215.123-.215.223.002.115.005.051.012.169-.021.011-.022-.005-.031-.025" fill="#fff"/></pattern><path d="M317.686 229.75a159.492 159.492 0 012.709 29.398C320.395 339.125 266.852 396 186 396c-77.349 0-140-62.651-140-140s62.651-140 140-140c37.803 0 69.385 13.911 93.627 36.487l-39.469 39.465v-.09c-14.697-14.001-33.333-21.174-54.158-21.174-46.198 0-83.736 39.024-83.736 85.227 0 46.194 37.538 85.312 83.736 85.312 41.913 0 70.436-23.977 76.307-56.875H186V229.75h131.686zm104.564 8.75v-43.75h-35v43.75H343.5v35h43.75v43.75h35V273.5H466v-35h-43.75z"/></svg>