<svg height="512" id="YouTube_alt" version="1.1" width="512" xml:space="preserve" xmlns="http://www.w3.org/2000/svg"><pattern height="69" id="Polka_Dot_Pattern" patternUnits="userSpaceOnUse" viewBox="2.125 -70.896 69 69" width="69" y="512" overflow="visible"><path fill="none" d="M71.125-1.896h-69v-69h69z"/><path fill="#f6bb60" d="M71.125-1.896h-69v-69h69z"/><path d="M61.772-71.653a.247.247 0 01-.026.19c-.053.101-.112.062-.165.128a.636.636 0 00-.079.362c-.169.058-.01.227-.015.35-.002.05-.041.105-.045.161a.764.764 0 00.068.37c.097.198.268.413.435.544.19.148.365.572.608.631.177.042.384-.104.543-.143.18-.043.397.01.571-.053.222-.079.127-.337.288-.45.104-.074.287-.01.406-.051a.607.607 0 00.376-.46c.016-.082.01-.145.039-.221.039-.103.111-.16.09-.293-.01-.062-.052-.12-.064-.187-.022-.114.002-.224 0-.337-.003-.2.017-.379-.078-.55-.38-.688-1.236-.929-1.975-.789-.18.034-.287.126-.442.207-.17.088-.139.166-.318.224-.081.026-.216.124-.215.224.001.115.005.051.012.169-.021.011-.021-.005-.03-.025m-7.651-.001a.247.247 0 01-.026.19c-.053.101-.112.062-.165.128a.636.636 0 00-.079.362c-.169.058-.01.227-.015.35-.002.05-.041.105-.045.161a.764.764 0 00.068.37c.097.198.268.413.435.544.19.148.365.572.608.631.177.042.384-.104.543-.143.18-.043.397.01.571-.053.222-.079.127-.337.288-.45.104-.074.287-.01.406-.051a.607.607 0 00.376-.46c.016-.082.01-.145.039-.221.039-.103.111-.16.09-.293-.01-.062-.052-.12-.064-.187-.022-.114.002-.224 0-.337-.003-.2.017-.379-.078-.55-.38-.688-1.236-.929-1.975-.789-.18.034-.287.126-.442.207-.17.088-.139.166-.318.224-.081.026-.216.124-.215.224.001.115.005.051.012.169-.021.011-.021-.005-.03-.025m-7.65-.001a.247.247 0 01-.026.19c-.053.101-.112.062-.165.128a.636.636 0 00-.079.362c-.169.058-.01.227-.015.35-.002.05-.041.105-.045.161a.764.764 0 00.068.37c.097.198.268.413.435.544.19.148.365.572.608.631.177.042.384-.104.543-.143.18-.043.397.01.571-.053.222-.079.127-.337.288-.45.104-.074.287-.01.406-.051a.607.607 0 00.376-.46c.016-.082.01-.145.039-.221.039-.103.111-.16.09-.293-.01-.062-.052-.12-.064-.187-.022-.114.002-.224 0-.337-.003-.2.017-.379-.078-.55-.38-.688-1.236-.929-1.975-.789-.18.034-.287.126-.442.207-.17.088-.139.166-.318.224-.081.026-.216.124-.215.224.001.115.005.051.012.169-.021.011-.021-.005-.03-.025m-7.651-.001a.247.247 0 01-.026.19c-.053.101-.112.062-.165.128a.636.636 0 00-.079.362c-.169.058-.01.227-.015.35-.002.05-.041.105-.045.161a.764.764 0 00.068.37c.097.198.268.413.435.544.19.148.365.572.608.631.177.042.384-.104.543-.143.18-.043.397.01.571-.053.222-.079.127-.337.288-.45.104-.074.287-.01.406-.051a.607.607 0 00.376-.46c.016-.082.01-.145.039-.221.039-.103.111-.16.09-.293-.01-.062-.052-.12-.064-.187-.022-.114.002-.224 0-.337-.003-.2.017-.379-.078-.55-.38-.688-1.236-.929-1.975-.789-.18.034-.287.126-.442.207-.17.088-.139.166-.318.224-.081.026-.216.124-.215.224.001.115.005.051.012.169-.021.011-.021-.005-.03-.025m-7.651-.001a.247.247 0 01-.026.19c-.053.101-.112.062-.165.128a.636.636 0 00-.079.362c-.169.058-.01.227-.015.35-.002.05-.041.105-.045.161a.764.764 0 00.068.37c.097.198.268.413.435.544.19.148.365.572.608.631.177.042.384-.104.543-.143.18-.043.397.01.571-.053.222-.079.127-.337.288-.45.104-.074.287-.01.406-.051a.607.607 0 00.376-.46c.016-.082.01-.145.039-.221.039-.103.111-.16.09-.293-.01-.062-.052-.12-.064-.187-.022-.114.002-.224 0-.337-.003-.2.017-.379-.078-.55-.38-.688-1.236-.929-1.975-.789-.18.034-.287.126-.442.207-.17.088-.139.166-.318.224-.081.026-.216.124-.215.224.001.115.005.051.012.169-.021.011-.021-.005-.03-.025m-7.65-.001a.247.247 0 01-.026.19c-.053.101-.112.062-.165.128a.636.636 0 00-.079.362c-.169.058-.01.227-.015.35-.002.05-.041.105-.045.161a.764.764 0 00.068.37c.097.198.268.413.435.544.19.148.365.572.608.631.177.042.384-.104.543-.143.18-.043.397.01.571-.053.222-.079.127-.337.288-.45.104-.074.287-.01.406-.051a.607.607 0 00.376-.46c.016-.082.01-.145.039-.221.039-.103.111-.16.09-.293-.01-.062-.052-.12-.064-.187-.022-.114.002-.224 0-.337-.003-.2.017-.379-.078-.55-.38-.688-1.236-.929-1.975-.789-.18.034-.287.126-.442.207-.17.088-.139.166-.318.224-.081.026-.216.124-.215.224.001.115.005.051.012.169-.021.011-.021-.005-.03-.025m-7.651-.001a.247.247 0 01-.026.19c-.053.101-.112.062-.165.128a.636.636 0 00-.079.362c-.169.058-.01.227-.015.35-.002.05-.041.105-.045.161a.764.764 0 00.068.37c.097.198.268.413.435.544.19.148.365.572.608.631.177.042.384-.104.543-.143.18-.043.397.01.571-.053.222-.079.127-.337.288-.45.104-.074.287-.01.406-.051a.607.607 0 00.376-.46c.016-.082.01-.145.039-.221.039-.103.111-.16.09-.293-.01-.062-.052-.12-.064-.187-.022-.114.002-.224 0-.337-.003-.2.017-.379-.078-.55-.38-.688-1.236-.929-1.975-.789-.18.034-.287.126-.442.207-.17.088-.139.166-.318.224-.081.026-.216.124-.215.224.001.115.005.051.012.169-.021.011-.021-.005-.03-.025m-7.651-.001a.247.247 0 01-.026.19c-.053.101-.112.062-.165.128a.636.636 0 00-.079.362c-.169.058-.01.227-.015.35-.002.05-.041.105-.045.161a.764.764 0 00.068.37c.097.198.268.413.435.544.19.148.365.572.608.631.177.042.384-.104.543-.143.18-.043.397.01.571-.053.222-.079.127-.337.288-.45.104-.074.287-.01.406-.051a.607.607 0 00.376-.46c.016-.082.01-.145.039-.221.039-.103.111-.16.09-.293-.01-.062-.052-.12-.064-.187-.022-.114.002-.224 0-.337-.003-.2.017-.379-.078-.55-.38-.688-1.236-.929-1.975-.789-.18.034-.287.126-.442.207-.17.088-.139.166-.318.224-.081.026-.216.124-.215.224.001.115.005.051.012.169-.021.011-.021-.005-.03-.025m-7.65-.001a.242.242 0 01-.026.19c-.052.101-.113.063-.165.128a.628.628 0 00-.079.362c-.169.058-.01.227-.015.35-.002.05-.041.105-.045.161a.764.764 0 00.068.37c.097.198.268.413.435.544.19.148.365.572.608.631.177.042.384-.104.543-.143.18-.043.397.01.571-.053.222-.079.127-.337.288-.45.104-.074.287-.01.406-.051.2-.07.339-.263.376-.46.016-.082.01-.145.039-.221.038-.103.111-.16.09-.293-.01-.062-.051-.12-.064-.187-.021-.114.002-.224 0-.337-.003-.2.017-.379-.078-.55-.38-.688-1.236-.929-1.975-.789-.18.034-.287.126-.442.207-.17.088-.139.166-.318.224-.081.026-.215.124-.215.224.002.115.005.051.012.169-.021.011-.021-.005-.03-.025" fill="#fff"/><path d="M69.439-71.653a.242.242 0 01-.026.19c-.052.101-.113.062-.165.128a.628.628 0 00-.079.362c-.169.058-.01.227-.015.35-.002.05-.041.105-.045.161a.764.764 0 00.068.37c.097.198.268.413.435.544.19.148.365.572.608.631.177.042.384-.104.543-.143.18-.043.397.01.571-.053.222-.079.127-.337.288-.45.104-.074.287-.01.406-.051.2-.07.339-.263.376-.46.016-.082.01-.145.039-.221.038-.103.111-.16.09-.293-.01-.062-.051-.12-.064-.187-.021-.114.002-.224 0-.337-.003-.2.017-.379-.078-.55-.38-.688-1.236-.929-1.975-.789-.18.034-.287.126-.442.207-.17.088-.139.166-.318.224-.081.026-.215.124-.215.224.002.115.005.051.012.169-.021.011-.021-.005-.03-.025M.495-71.653a.242.242 0 01-.026.19c-.052.101-.113.062-.165.128a.628.628 0 00-.079.362c-.169.058-.01.227-.015.35-.002.05-.041.105-.045.161a.764.764 0 00.068.37c.097.198.268.413.435.544.19.148.365.572.608.631.177.042.384-.104.543-.143.18-.043.397.01.571-.053.222-.079.127-.337.288-.45.104-.074.287-.01.406-.051.2-.07.339-.263.376-.46.016-.082.01-.145.039-.221.038-.103.111-.16.09-.293-.01-.062-.051-.12-.064-.187-.021-.114.002-.224 0-.337-.003-.2.017-.379-.078-.55-.38-.688-1.236-.929-1.975-.789-.18.034-.287.126-.442.207-.17.088-.139.166-.318.224-.081.026-.215.124-.215.224.003.116.006.052.013.17-.021.011-.021-.005-.03-.025m68.959 7.65a.247.247 0 01-.026.19c-.053.101-.112.062-.165.128a.636.636 0 00-.079.362c-.169.058-.01.227-.015.35-.002.05-.041.105-.045.161a.764.764 0 00.068.37c.097.198.268.413.435.544.19.148.365.572.608.631.177.042.384-.104.543-.143.18-.043.397.01.571-.053.222-.079.127-.337.288-.45.104-.074.287-.01.406-.051a.607.607 0 00.376-.46c.016-.082.01-.145.039-.221.039-.103.111-.16.09-.293-.01-.062-.052-.12-.064-.187-.022-.114.002-.224 0-.337-.003-.2.017-.379-.078-.55-.38-.688-1.236-.929-1.975-.789-.18.034-.287.126-.442.207-.17.088-.139.166-.318.224-.081.026-.216.124-.215.224.001.115.005.051.012.169-.021.011-.021-.005-.03-.025m-7.645-.001a.247.247 0 01-.026.19c-.053.101-.112.062-.165.128a.636.636 0 00-.079.362c-.169.058-.009.227-.015.35-.002.05-.041.105-.045.161a.764.764 0 00.068.37c.097.198.268.413.435.544.19.148.365.572.608.631.177.042.384-.104.543-.143.18-.043.397.01.571-.053.222-.079.127-.337.288-.45.104-.074.287-.01.406-.051a.607.607 0 00.376-.46c.016-.082.01-.145.039-.221.039-.103.111-.16.09-.293-.01-.062-.052-.12-.064-.187-.022-.114.002-.224 0-.337-.003-.2.017-.379-.078-.55-.38-.688-1.236-.929-1.975-.789-.18.034-.287.126-.442.207-.17.088-.139.166-.318.224-.081.026-.216.124-.215.224.001.115.005.051.012.169-.021.011-.021-.005-.03-.025m-7.644-.001a.247.247 0 01-.026.19c-.053.101-.112.062-.165.128a.636.636 0 00-.079.362c-.169.058-.009.227-.015.35-.002.05-.041.105-.045.161a.764.764 0 00.068.37c.097.198.268.413.435.544.19.148.365.572.608.631.177.042.384-.104.543-.143.18-.043.397.01.571-.053.222-.079.127-.337.288-.45.104-.074.287-.01.406-.051a.607.607 0 00.376-.46c.016-.082.01-.145.039-.221.039-.103.111-.16.09-.293-.01-.062-.052-.12-.064-.187-.022-.114.002-.224 0-.337-.003-.2.017-.379-.078-.55-.38-.688-1.236-.929-1.975-.789-.18.034-.287.126-.442.207-.17.088-.139.166-.318.224-.081.026-.216.124-.215.224.001.115.005.051.012.169-.021.011-.021-.005-.03-.025m-7.644-.001a.247.247 0 01-.026.19c-.053.101-.112.062-.165.128a.636.636 0 00-.079.362c-.169.058-.009.227-.015.35-.002.05-.041.105-.045.161a.764.764 0 00.068.37c.097.198.268.413.435.544.19.148.365.572.608.631.177.042.384-.104.543-.143.18-.043.397.01.571-.053.222-.079.127-.337.288-.45.104-.074.287-.01.406-.051a.607.607 0 00.376-.46c.016-.082.01-.145.039-.221.039-.103.111-.16.09-.293-.01-.062-.052-.12-.064-.187-.022-.114.002-.224 0-.337-.003-.2.017-.379-.078-.55-.38-.688-1.236-.929-1.975-.789-.18.034-.287.126-.442.207-.17.088-.139.166-.318.224-.081.026-.216.124-.215.224.001.115.005.051.012.169-.021.011-.021-.005-.03-.025m-7.645-.001a.247.247 0 01-.026.19c-.053.101-.112.062-.165.128a.636.636 0 00-.079.362c-.169.058-.009.227-.015.35-.002.05-.041.105-.045.161a.764.764 0 00.068.37c.097.198.268.413.435.544.19.148.365.572.608.631.177.042.384-.104.543-.143.18-.043.397.01.571-.053.222-.079.127-.337.288-.45.104-.074.287-.01.406-.051a.607.607 0 00.376-.46c.016-.082.01-.145.039-.221.039-.103.111-.16.09-.293-.01-.062-.052-.12-.064-.187-.022-.114.002-.224 0-.337-.003-.2.017-.379-.078-.55-.38-.688-1.236-.929-1.975-.789-.18.034-.287.126-.442.207-.17.088-.139.166-.318.224-.081.026-.216.124-.215.224.001.115.005.051.012.169-.021.011-.021-.005-.03-.025m-7.644-.001a.247.247 0 01-.026.19c-.053.101-.112.062-.165.128a.636.636 0 00-.079.362c-.169.058-.009.227-.015.35-.002.05-.041.105-.045.161a.764.764 0 00.068.37c.097.198.268.413.435.544.19.148.365.572.608.631.177.042.384-.104.543-.143.18-.043.397.01.571-.053.222-.079.127-.337.288-.45.104-.074.287-.01.406-.051a.607.607 0 00.376-.46c.016-.082.01-.145.039-.221.039-.103.111-.16.09-.293-.01-.062-.052-.12-.064-.187-.022-.114.002-.224 0-.337-.003-.2.017-.379-.078-.55-.38-.688-1.236-.929-1.975-.789-.18.034-.287.126-.442.207-.17.088-.139.166-.318.224-.081.026-.216.124-.215.224.001.115.005.051.012.169-.021.011-.021-.005-.03-.025m-7.644-.001a.247.247 0 01-.026.19c-.053.101-.112.062-.165.128a.636.636 0 00-.079.362c-.169.058-.009.227-.015.35-.002.05-.041.105-.045.161a.764.764 0 00.068.37c.097.198.268.413.435.544.19.148.365.572.608.631.177.042.384-.104.543-.143.18-.043.397.01.571-.053.222-.079.127-.337.288-.45.104-.074.287-.01.406-.051a.607.607 0 00.376-.46c.016-.082.01-.145.039-.221.039-.103.111-.16.09-.293-.01-.062-.052-.12-.064-.187-.022-.114.002-.224 0-.337-.003-.2.017-.379-.078-.55-.38-.688-1.236-.929-1.975-.789-.18.034-.287.126-.442.207-.17.088-.139.166-.318.224-.081.026-.216.124-.215.224.001.115.005.051.012.169-.021.011-.021-.005-.03-.025m-7.645-.001a.247.247 0 01-.026.19c-.053.101-.112.062-.165.128a.636.636 0 00-.079.362c-.169.058-.009.227-.015.35-.002.05-.041.105-.045.161a.764.764 0 00.068.37c.097.198.268.413.435.544.19.148.365.572.608.631.177.042.384-.104.543-.143.18-.043.397.01.571-.053.222-.079.127-.337.288-.45.104-.074.287-.01.406-.051a.607.607 0 00.376-.46c.016-.082.01-.145.039-.221.039-.103.111-.16.09-.293-.01-.062-.052-.12-.064-.187-.022-.114.002-.224 0-.337-.003-.2.017-.379-.078-.55-.38-.688-1.236-.929-1.975-.789-.18.034-.287.126-.442.207-.17.088-.139.166-.318.224-.081.026-.216.124-.215.224.001.115.005.051.012.169-.021.011-.021-.005-.03-.025m-7.644-.001a.247.247 0 01-.026.19c-.053.101-.112.062-.165.128a.636.636 0 00-.079.362c-.169.058-.009.227-.015.35-.002.05-.041.105-.045.161a.764.764 0 00.068.37c.097.198.268.413.435.544.19.148.365.572.608.631.177.042.384-.104.543-.143.18-.043.397.01.571-.053.222-.079.127-.337.288-.45.104-.074.287-.01.406-.051a.607.607 0 00.376-.46c.016-.082.01-.145.039-.221.039-.103.111-.16.09-.293-.01-.062-.052-.12-.064-.187-.022-.114.002-.224 0-.337-.003-.2.017-.379-.078-.55-.38-.688-1.236-.929-1.975-.789-.18.034-.287.126-.442.207-.17.088-.139.166-.318.224-.081.026-.216.124-.215.224.001.115.005.051.012.169-.021.011-.021-.005-.03-.025m-7.645-.001a.247.247 0 01-.026.19c-.053.101-.112.062-.165.128a.636.636 0 00-.079.362c-.169.058-.01.227-.015.35-.002.05-.041.105-.045.161a.764.764 0 00.068.37c.097.198.268.413.435.544.19.148.365.572.608.631.177.042.384-.104.543-.143.181-.042.398.011.572-.052.222-.079.127-.337.288-.45.104-.074.287-.01.406-.051a.607.607 0 00.376-.46c.016-.082.01-.145.039-.221.039-.103.111-.16.09-.293-.01-.062-.052-.12-.064-.187-.022-.114.002-.224 0-.337-.003-.2.017-.379-.078-.55-.38-.688-1.236-.929-1.975-.789-.18.034-.287.126-.442.207-.17.088-.139.166-.318.224-.081.026-.216.124-.215.224.001.115.005.051.012.169-.021.011-.021-.005-.03-.025m68.959 7.651a.247.247 0 01-.026.19c-.053.101-.112.062-.165.128a.636.636 0 00-.079.362c-.169.058-.01.227-.015.35-.002.05-.041.105-.045.161a.764.764 0 00.068.37c.097.198.268.413.435.544.19.148.365.572.608.631.177.042.384-.104.543-.143.18-.043.397.01.571-.053.222-.079.127-.337.288-.45.104-.074.287-.01.406-.051a.607.607 0 00.376-.46c.016-.082.01-.145.039-.221.039-.103.111-.16.09-.293-.01-.062-.052-.12-.064-.187-.022-.114.002-.224 0-.337-.003-.2.017-.379-.078-.55-.38-.688-1.236-.929-1.975-.789-.18.034-.287.126-.442.207-.17.088-.139.166-.318.224-.081.026-.216.124-.215.224.001.115.005.051.012.169-.021.011-.021-.005-.03-.025m-7.645-.001a.247.247 0 01-.026.19c-.053.101-.112.062-.165.128a.636.636 0 00-.079.362c-.169.058-.009.227-.015.35-.002.05-.041.105-.045.161a.764.764 0 00.068.37c.097.198.268.413.435.544.19.148.365.572.608.631.177.042.384-.104.543-.143.18-.043.397.01.571-.053.222-.079.127-.337.288-.45.104-.074.287-.01.406-.051a.607.607 0 00.376-.46c.016-.082.01-.145.039-.221.039-.103.111-.16.09-.293-.01-.062-.052-.12-.064-.187-.022-.114.002-.224 0-.337-.003-.2.017-.379-.078-.55-.38-.688-1.236-.929-1.975-.789-.18.034-.287.126-.442.207-.17.088-.139.166-.318.224-.081.026-.216.124-.215.224.001.115.005.051.012.169-.021.011-.021-.005-.03-.025m-7.644-.001a.247.247 0 01-.026.19c-.053.101-.112.062-.165.128a.636.636 0 00-.079.362c-.169.058-.009.227-.015.35-.002.05-.041.105-.045.161a.764.764 0 00.068.37c.097.198.268.413.435.544.19.148.365.572.608.631.177.042.384-.104.543-.143.18-.043.397.01.571-.053.222-.079.127-.337.288-.45.104-.074.287-.01.406-.051a.607.607 0 00.376-.46c.016-.082.01-.145.039-.221.039-.103.111-.16.09-.293-.01-.062-.052-.12-.064-.187-.022-.114.002-.224 0-.337-.003-.2.017-.379-.078-.55-.38-.688-1.236-.929-1.975-.789-.18.034-.287.126-.442.207-.17.088-.139.166-.318.224-.081.026-.216.124-.215.224.001.115.005.051.012.169-.021.011-.021-.005-.03-.025m-7.644-.001a.247.247 0 01-.026.19c-.053.101-.112.062-.165.128a.636.636 0 00-.079.362c-.169.058-.009.227-.015.35-.002.05-.041.105-.045.161a.764.764 0 00.068.37c.097.198.268.413.435.544.19.148.365.572.608.631.177.042.384-.104.543-.143.18-.043.397.01.571-.053.222-.079.127-.337.288-.45.104-.074.287-.01.406-.051a.607.607 0 00.376-.46c.016-.082.01-.145.039-.221.039-.103.111-.16.09-.293-.01-.062-.052-.12-.064-.187-.022-.114.002-.224 0-.337-.003-.2.017-.379-.078-.55-.38-.688-1.236-.929-1.975-.789-.18.034-.287.126-.442.207-.17.088-.139.166-.318.224-.081.026-.216.124-.215.224.001.115.005.051.012.169-.021.011-.021-.005-.03-.025m-7.645-.001a.247.247 0 01-.026.19c-.053.101-.112.062-.165.128a.636.636 0 00-.079.362c-.169.058-.009.227-.015.35-.002.05-.041.105-.045.161a.764.764 0 00.068.37c.097.198.268.413.435.544.19.148.365.572.608.631.177.042.384-.104.543-.143.18-.043.397.01.571-.053.222-.079.127-.337.288-.45.104-.074.287-.01.406-.051a.607.607 0 00.376-.46c.016-.082.01-.145.039-.221.039-.103.111-.16.09-.293-.01-.062-.052-.12-.064-.187-.022-.114.002-.224 0-.337-.003-.2.017-.379-.078-.55-.38-.688-1.236-.929-1.975-.789-.18.034-.287.126-.442.207-.17.088-.139.166-.318.224-.081.026-.216.124-.215.224.001.115.005.051.012.169-.021.011-.021-.005-.03-.025m-7.644-.001a.247.247 0 01-.026.19c-.053.101-.112.062-.165.128a.636.636 0 00-.079.362c-.169.058-.009.227-.015.35-.002.05-.041.105-.045.161a.764.764 0 00.068.37c.097.198.268.413.435.544.19.148.365.572.608.631.177.042.384-.104.543-.143.18-.043.397.01.571-.053.222-.079.127-.337.288-.45.104-.074.287-.01.406-.051a.607.607 0 00.376-.46c.016-.082.01-.145.039-.221.039-.103.111-.16.09-.293-.01-.062-.052-.12-.064-.187-.022-.114.002-.224 0-.337-.003-.2.017-.379-.078-.55-.38-.688-1.236-.929-1.975-.789-.18.034-.287.126-.442.207-.17.088-.139.166-.318.224-.081.026-.216.124-.215.224.001.115.005.051.012.169-.021.011-.021-.005-.03-.025m-7.644-.001a.247.247 0 01-.026.19c-.053.101-.112.062-.165.128a.636.636 0 00-.079.362c-.169.058-.009.227-.015.35-.002.05-.041.105-.045.161a.764.764 0 00.068.37c.097.198.268.413.435.544.19.148.365.572.608.631.177.042.384-.104.543-.143.18-.043.397.01.571-.053.222-.079.127-.337.288-.45.104-.074.287-.01.406-.051a.607.607 0 00.376-.46c.016-.082.01-.145.039-.221.039-.103.111-.16.09-.293-.01-.062-.052-.12-.064-.187-.022-.114.002-.224 0-.337-.003-.2.017-.379-.078-.55-.38-.688-1.236-.929-1.975-.789-.18.034-.287.126-.442.207-.17.088-.139.166-.318.224-.081.026-.216.124-.215.224.001.115.005.051.012.169-.021.011-.021-.005-.03-.025m-7.645-.001a.247.247 0 01-.026.19c-.053.101-.112.062-.165.128a.636.636 0 00-.079.362c-.169.058-.009.227-.015.35-.002.05-.041.105-.045.161a.764.764 0 00.068.37c.097.198.268.413.435.544.19.148.365.572.608.631.177.042.384-.104.543-.143.18-.043.397.01.571-.053.222-.079.127-.337.288-.45.104-.074.287-.01.406-.051a.607.607 0 00.376-.46c.016-.082.01-.145.039-.221.039-.103.111-.16.09-.293-.01-.062-.052-.12-.064-.187-.022-.114.002-.224 0-.337-.003-.2.017-.379-.078-.55-.38-.688-1.236-.929-1.975-.789-.18.034-.287.126-.442.207-.17.088-.139.166-.318.224-.081.026-.216.124-.215.224.001.115.005.051.012.169-.021.011-.021-.005-.03-.025m-7.644-.001a.247.247 0 01-.026.19c-.053.101-.112.062-.165.128a.636.636 0 00-.079.362c-.169.058-.009.227-.015.35-.002.05-.041.105-.045.161a.764.764 0 00.068.37c.097.198.268.413.435.544.19.148.365.572.608.631.177.042.384-.104.543-.143.18-.043.397.01.571-.053.222-.079.127-.337.288-.45.104-.074.287-.01.406-.051a.607.607 0 00.376-.46c.016-.082.01-.145.039-.221.039-.103.111-.16.09-.293-.01-.062-.052-.12-.064-.187-.022-.114.002-.224 0-.337-.003-.2.017-.379-.078-.55-.38-.688-1.236-.929-1.975-.789-.18.034-.287.126-.442.207-.17.088-.139.166-.318.224-.081.026-.216.124-.215.224.001.115.005.051.012.169-.021.011-.021-.005-.03-.025m-7.645-.001a.247.247 0 01-.026.19c-.053.101-.112.062-.165.128a.636.636 0 00-.079.362c-.169.058-.01.227-.015.35-.002.05-.041.105-.045.161a.764.764 0 00.068.37c.097.198.268.413.435.544.19.148.365.572.608.631.177.042.384-.104.543-.143.18-.043.397.01.571-.053.222-.079.127-.337.288-.45.104-.074.287-.01.406-.051a.607.607 0 00.376-.46c.016-.082.01-.145.039-.221.039-.103.111-.16.09-.293-.01-.062-.052-.12-.064-.187-.022-.114.002-.224 0-.337-.003-.2.017-.379-.078-.55-.38-.688-1.236-.929-1.975-.789-.18.034-.287.126-.442.207-.17.088-.139.166-.318.224-.081.026-.216.124-.215.224.003.117.006.053.013.171-.021.011-.021-.005-.03-.025m68.959 7.65a.247.247 0 01-.026.19c-.053.101-.112.062-.165.128a.636.636 0 00-.079.362c-.169.058-.01.227-.015.35-.002.05-.041.105-.045.161a.764.764 0 00.068.37c.097.198.268.413.435.544.19.148.365.572.608.631.177.042.384-.104.543-.143.18-.043.397.01.571-.053.222-.079.127-.337.288-.45.104-.074.287-.01.406-.051a.607.607 0 00.376-.46c.016-.082.01-.145.039-.221.039-.103.111-.16.09-.293-.01-.062-.052-.12-.064-.187-.022-.114.002-.224 0-.337-.003-.2.017-.379-.078-.55-.38-.688-1.236-.929-1.975-.789-.18.034-.287.126-.442.207-.17.088-.139.166-.318.224-.081.026-.216.124-.215.224.001.115.005.051.012.169-.021.011-.021-.005-.03-.025m-7.645-.001a.247.247 0 01-.026.19c-.053.101-.112.062-.165.128a.636.636 0 00-.079.362c-.169.058-.009.227-.015.35-.002.05-.041.105-.045.161a.764.764 0 00.068.37c.097.198.268.413.435.544.19.148.365.572.608.631.177.042.384-.104.543-.143.18-.043.397.01.571-.053.222-.079.127-.337.288-.45.104-.074.287-.01.406-.051a.607.607 0 00.376-.46c.016-.082.01-.145.039-.221.039-.103.111-.16.09-.293-.01-.062-.052-.12-.064-.187-.022-.114.002-.224 0-.337-.003-.2.017-.379-.078-.55-.38-.688-1.236-.929-1.975-.789-.18.034-.287.126-.442.207-.17.088-.139.166-.318.224-.081.026-.216.124-.215.224.001.115.005.051.012.169-.021.011-.021-.005-.03-.025m-7.644-.001a.247.247 0 01-.026.19c-.053.101-.112.062-.165.128a.636.636 0 00-.079.362c-.169.058-.009.227-.015.35-.002.05-.041.105-.045.161a.764.764 0 00.068.37c.097.198.268.413.435.544.19.148.365.572.608.631.177.042.384-.104.543-.143.18-.043.397.01.571-.053.222-.079.127-.337.288-.45.104-.074.287-.01.406-.051a.607.607 0 00.376-.46c.016-.082.01-.145.039-.221.039-.103.111-.16.09-.293-.01-.062-.052-.12-.064-.187-.022-.114.002-.224 0-.337-.003-.2.017-.379-.078-.55-.38-.688-1.236-.929-1.975-.789-.18.034-.287.126-.442.207-.17.088-.139.166-.318.224-.081.026-.216.124-.215.224.001.115.005.051.012.169-.021.011-.021-.005-.03-.025m-7.644-.001a.247.247 0 01-.026.19c-.053.101-.112.062-.165.128a.636.636 0 00-.079.362c-.169.058-.009.227-.015.35-.002.05-.041.105-.045.161a.764.764 0 00.068.37c.097.198.268.413.435.544.19.148.365.572.608.631.177.042.384-.104.543-.143.18-.043.397.01.571-.053.222-.079.127-.337.288-.45.104-.074.287-.01.406-.051a.607.607 0 00.376-.46c.016-.082.01-.145.039-.221.039-.103.111-.16.09-.293-.01-.062-.052-.12-.064-.187-.022-.114.002-.224 0-.337-.003-.2.017-.379-.078-.55-.38-.688-1.236-.929-1.975-.789-.18.034-.287.126-.442.207-.17.088-.139.166-.318.224-.081.026-.216.124-.215.224.001.115.005.051.012.169-.021.011-.021-.005-.03-.025m-7.645-.001a.247.247 0 01-.026.19c-.053.101-.112.062-.165.128a.636.636 0 00-.079.362c-.169.058-.009.227-.015.35-.002.05-.041.105-.045.161a.764.764 0 00.068.37c.097.198.268.413.435.544.19.148.365.572.608.631.177.042.384-.104.543-.143.18-.043.397.01.571-.053.222-.079.127-.337.288-.45.104-.074.287-.01.406-.051a.607.607 0 00.376-.46c.016-.082.01-.145.039-.221.039-.103.111-.16.09-.293-.01-.062-.052-.12-.064-.187-.022-.114.002-.224 0-.337-.003-.2.017-.379-.078-.55-.38-.688-1.236-.929-1.975-.789-.18.034-.287.126-.442.207-.17.088-.139.166-.318.224-.081.026-.216.124-.215.224.001.115.005.051.012.169-.021.011-.021-.005-.03-.025m-7.644-.001a.247.247 0 01-.026.19c-.053.101-.112.062-.165.128a.636.636 0 00-.079.362c-.169.058-.009.227-.015.35-.002.05-.041.105-.045.161a.764.764 0 00.068.37c.097.198.268.413.435.544.19.148.365.572.608.631.177.042.384-.104.543-.143.18-.043.397.01.571-.053.222-.079.127-.337.288-.45.104-.074.287-.01.406-.051a.607.607 0 00.376-.46c.016-.082.01-.145.039-.221.039-.103.111-.16.09-.293-.01-.062-.052-.12-.064-.187-.022-.114.002-.224 0-.337-.003-.2.017-.379-.078-.55-.38-.688-1.236-.929-1.975-.789-.18.034-.287.126-.442.207-.17.088-.139.166-.318.224-.081.026-.216.124-.215.224.001.115.005.051.012.169-.021.011-.021-.005-.03-.025m-7.644-.001a.247.247 0 01-.026.19c-.053.101-.112.062-.165.128a.636.636 0 00-.079.362c-.169.058-.009.227-.015.35-.002.05-.041.105-.045.161a.764.764 0 00.068.37c.097.198.268.413.435.544.19.148.365.572.608.631.177.042.384-.104.543-.143.18-.043.397.01.571-.053.222-.079.127-.337.288-.45.104-.074.287-.01.406-.051a.607.607 0 00.376-.46c.016-.082.01-.145.039-.221.039-.103.111-.16.09-.293-.01-.062-.052-.12-.064-.187-.022-.114.002-.224 0-.337-.003-.2.017-.379-.078-.55-.38-.688-1.236-.929-1.975-.789-.18.034-.287.126-.442.207-.17.088-.139.166-.318.224-.081.026-.216.124-.215.224.001.115.005.051.012.169-.021.011-.021-.005-.03-.025m-7.645-.001a.247.247 0 01-.026.19c-.053.101-.112.062-.165.128a.636.636 0 00-.079.362c-.169.058-.009.227-.015.35-.002.05-.041.105-.045.161a.764.764 0 00.068.37c.097.198.268.413.435.544.19.148.365.572.608.631.177.042.384-.104.543-.143.18-.043.397.01.571-.053.222-.079.127-.337.288-.45.104-.074.287-.01.406-.051a.607.607 0 00.376-.46c.016-.082.01-.145.039-.221.039-.103.111-.16.09-.293-.01-.062-.052-.12-.064-.187-.022-.114.002-.224 0-.337-.003-.2.017-.379-.078-.55-.38-.688-1.236-.929-1.975-.789-.18.034-.287.126-.442.207-.17.088-.139.166-.318.224-.081.026-.216.124-.215.224.001.115.005.051.012.169-.021.011-.021-.005-.03-.025m-7.644-.001a.247.247 0 01-.026.19c-.053.101-.112.062-.165.128a.636.636 0 00-.079.362c-.169.058-.009.227-.015.35-.002.05-.041.105-.045.161a.764.764 0 00.068.37c.097.198.268.413.435.544.19.148.365.572.608.631.177.042.384-.104.543-.143.18-.043.397.01.571-.053.222-.079.127-.337.288-.45.104-.074.287-.01.406-.051a.607.607 0 00.376-.46c.016-.082.01-.145.039-.221.039-.103.111-.16.09-.293-.01-.062-.052-.12-.064-.187-.022-.114.002-.224 0-.337-.003-.2.017-.379-.078-.55-.38-.688-1.236-.929-1.975-.789-.18.034-.287.126-.442.207-.17.088-.139.166-.318.224-.081.026-.216.124-.215.224.001.115.005.051.012.169-.021.011-.021-.005-.03-.025m-7.645-.001a.247.247 0 01-.026.19c-.053.101-.112.062-.165.128a.636.636 0 00-.079.362c-.169.058-.01.227-.015.35-.002.05-.041.105-.045.161a.764.764 0 00.068.37c.097.198.268.413.435.544.19.148.365.572.608.631.177.042.384-.104.543-.143.18-.043.397.01.571-.053.222-.079.127-.337.288-.45.104-.074.287-.01.406-.051a.607.607 0 00.376-.46c.016-.082.01-.145.039-.221.039-.103.111-.16.09-.293-.01-.062-.052-.12-.064-.187-.022-.114.002-.224 0-.337-.003-.2.017-.379-.078-.55-.38-.688-1.236-.929-1.975-.789-.18.034-.287.126-.442.207-.17.088-.139.166-.318.224-.081.026-.216.124-.215.224.001.115.005.051.012.169-.021.011-.021-.005-.03-.025m68.96 7.652a.247.247 0 01-.026.19c-.053.101-.112.062-.165.128a.636.636 0 00-.079.362c-.169.058-.01.227-.015.35-.002.05-.041.105-.045.161a.764.764 0 00.068.37c.097.198.268.413.435.544.19.148.365.572.608.631.177.042.384-.104.543-.143.18-.043.397.01.571-.053.222-.079.127-.337.288-.45.104-.074.287-.01.406-.051a.607.607 0 00.376-.46c.016-.082.01-.145.039-.221.039-.103.111-.16.09-.293-.01-.062-.052-.12-.064-.187-.022-.114.002-.224 0-.337-.003-.2.017-.379-.078-.55-.38-.688-1.236-.929-1.975-.789-.18.034-.287.126-.442.207-.17.088-.139.166-.318.224-.081.026-.216.124-.215.224.001.115.005.051.012.169-.021.011-.021-.005-.03-.025m-7.645-.001a.247.247 0 01-.026.19c-.053.101-.112.062-.165.128a.636.636 0 00-.079.362c-.169.058-.009.227-.015.35-.002.05-.041.105-.045.161a.764.764 0 00.068.37c.097.198.268.413.435.544.19.148.365.572.608.631.177.042.384-.104.543-.143.18-.043.397.01.571-.053.222-.079.127-.337.288-.45.104-.074.287-.01.406-.051a.607.607 0 00.376-.46c.016-.082.01-.145.039-.221.039-.103.111-.16.09-.293-.01-.062-.052-.12-.064-.187-.022-.114.002-.224 0-.337-.003-.2.017-.379-.078-.55-.38-.688-1.236-.929-1.975-.789-.18.034-.287.126-.442.207-.17.088-.139.166-.318.224-.081.026-.216.124-.215.224.001.115.005.051.012.169-.021.011-.021-.005-.03-.025m-7.644-.001a.247.247 0 01-.026.19c-.053.101-.112.062-.165.128a.636.636 0 00-.079.362c-.169.058-.009.227-.015.35-.002.05-.041.105-.045.161a.764.764 0 00.068.37c.097.198.268.413.435.544.19.148.365.572.608.631.177.042.384-.104.543-.143.18-.043.397.01.571-.053.222-.079.127-.337.288-.45.104-.074.287-.01.406-.051a.607.607 0 00.376-.46c.016-.082.01-.145.039-.221.039-.103.111-.16.09-.293-.01-.062-.052-.12-.064-.187-.022-.114.002-.224 0-.337-.003-.2.017-.379-.078-.55-.38-.688-1.236-.929-1.975-.789-.18.034-.287.126-.442.207-.17.088-.139.166-.318.224-.081.026-.216.124-.215.224.001.115.005.051.012.169-.021.011-.021-.005-.03-.025m-7.644-.001a.247.247 0 01-.026.19c-.053.101-.112.062-.165.128a.636.636 0 00-.079.362c-.169.058-.009.227-.015.35-.002.05-.041.105-.045.161a.764.764 0 00.068.37c.097.198.268.413.435.544.19.148.365.572.608.631.177.042.384-.104.543-.143.18-.043.397.01.571-.053.222-.079.127-.337.288-.45.104-.074.287-.01.406-.051a.607.607 0 00.376-.46c.016-.082.01-.145.039-.221.039-.103.111-.16.09-.293-.01-.062-.052-.12-.064-.187-.022-.114.002-.224 0-.337-.003-.2.017-.379-.078-.55-.38-.688-1.236-.929-1.975-.789-.18.034-.287.126-.442.207-.17.088-.139.166-.318.224-.081.026-.216.124-.215.224.001.115.005.051.012.169-.021.011-.021-.005-.03-.025m-7.645-.001a.247.247 0 01-.026.19c-.053.101-.112.062-.165.128a.636.636 0 00-.079.362c-.169.058-.009.227-.015.35-.002.05-.041.105-.045.161a.764.764 0 00.068.37c.097.198.268.413.435.544.19.148.365.572.608.631.177.042.384-.104.543-.143.18-.043.397.01.571-.053.222-.079.127-.337.288-.45.104-.074.287-.01.406-.051a.607.607 0 00.376-.46c.016-.082.01-.145.039-.221.039-.103.111-.16.09-.293-.01-.062-.052-.12-.064-.187-.022-.114.002-.224 0-.337-.003-.2.017-.379-.078-.55-.38-.688-1.236-.929-1.975-.789-.18.034-.287.126-.442.207-.17.088-.139.166-.318.224-.081.026-.216.124-.215.224.001.115.005.051.012.169-.021.011-.021-.005-.03-.025m-7.644-.001a.247.247 0 01-.026.19c-.053.101-.112.062-.165.128a.636.636 0 00-.079.362c-.169.058-.009.227-.015.35-.002.05-.041.105-.045.161a.764.764 0 00.068.37c.097.198.268.413.435.544.19.148.365.572.608.631.177.042.384-.104.543-.143.18-.043.397.01.571-.053.222-.079.127-.337.288-.45.104-.074.287-.01.406-.051a.607.607 0 00.376-.46c.016-.082.01-.145.039-.221.039-.103.111-.16.09-.293-.01-.062-.052-.12-.064-.187-.022-.114.002-.224 0-.337-.003-.2.017-.379-.078-.55-.38-.688-1.236-.929-1.975-.789-.18.034-.287.126-.442.207-.17.088-.139.166-.318.224-.081.026-.216.124-.215.224.001.115.005.051.012.169-.021.011-.021-.005-.03-.025m-7.644-.001a.247.247 0 01-.026.19c-.053.101-.112.062-.165.128a.636.636 0 00-.079.362c-.169.058-.009.227-.015.35-.002.05-.041.105-.045.161a.764.764 0 00.068.37c.097.198.268.413.435.544.19.148.365.572.608.631.177.042.384-.104.543-.143.18-.043.397.01.571-.053.222-.079.127-.337.288-.45.104-.074.287-.01.406-.051a.607.607 0 00.376-.46c.016-.082.01-.145.039-.221.039-.103.111-.16.09-.293-.01-.062-.052-.12-.064-.187-.022-.114.002-.224 0-.337-.003-.2.017-.379-.078-.55-.38-.688-1.236-.929-1.975-.789-.18.034-.287.126-.442.207-.17.088-.139.166-.318.224-.081.026-.216.124-.215.224.001.115.005.051.012.169-.021.011-.021-.005-.03-.025m-7.645-.001a.247.247 0 01-.026.19c-.053.101-.112.062-.165.128a.636.636 0 00-.079.362c-.169.058-.009.227-.015.35-.002.05-.041.105-.045.161a.764.764 0 00.068.37c.097.198.268.413.435.544.19.148.365.572.608.631.177.042.384-.104.543-.143.18-.043.397.01.571-.053.222-.079.127-.337.288-.45.104-.074.287-.01.406-.051a.607.607 0 00.376-.46c.016-.082.01-.145.039-.221.039-.103.111-.16.09-.293-.01-.062-.052-.12-.064-.187-.022-.114.002-.224 0-.337-.003-.2.017-.379-.078-.55-.38-.688-1.236-.929-1.975-.789-.18.034-.287.126-.442.207-.17.088-.139.166-.318.224-.081.026-.216.124-.215.224.001.115.005.051.012.169-.021.011-.021-.005-.03-.025m-7.644-.001a.247.247 0 01-.026.19c-.053.101-.112.062-.165.128a.636.636 0 00-.079.362c-.169.058-.009.227-.015.35-.002.05-.041.105-.045.161a.764.764 0 00.068.37c.097.198.268.413.435.544.19.148.365.572.608.631.177.042.384-.104.543-.143.18-.043.397.01.571-.053.222-.079.127-.337.288-.45.104-.074.287-.01.406-.051a.607.607 0 00.376-.46c.016-.082.01-.145.039-.221.039-.103.111-.16.09-.293-.01-.062-.052-.12-.064-.187-.022-.114.002-.224 0-.337-.003-.2.017-.379-.078-.55-.38-.688-1.236-.929-1.975-.789-.18.034-.287.126-.442.207-.17.088-.139.166-.318.224-.081.026-.216.124-.215.224.001.115.005.051.012.169-.02.012-.021-.004-.03-.024m-7.645-.002a.247.247 0 01-.026.19c-.053.101-.112.062-.165.128a.636.636 0 00-.079.362c-.169.058-.01.227-.015.35-.002.05-.041.105-.045.161a.764.764 0 00.068.37c.097.198.268.413.435.544.19.148.365.572.608.631.177.042.384-.104.543-.143.18-.043.397.01.571-.053.222-.079.127-.337.288-.45.104-.074.287-.01.406-.051a.607.607 0 00.376-.46c.016-.082.01-.145.039-.221.039-.103.111-.16.09-.293-.01-.062-.052-.12-.064-.187-.022-.114.002-.224 0-.337-.003-.2.017-.379-.078-.55-.38-.688-1.236-.929-1.975-.789-.18.034-.287.126-.442.207-.17.088-.139.166-.318.224-.081.026-.216.124-.215.224.001.115.005.051.012.169-.021.011-.021-.005-.03-.025m68.96 7.651a.247.247 0 01-.026.19c-.053.101-.112.062-.165.128a.636.636 0 00-.079.362c-.169.058-.01.227-.015.35-.002.05-.041.105-.045.161a.764.764 0 00.068.37c.097.198.268.413.435.544.19.148.365.572.608.631.177.042.384-.104.543-.143.18-.043.397.01.571-.053.222-.079.127-.337.288-.45.104-.074.287-.01.406-.051a.607.607 0 00.376-.46c.016-.082.01-.145.039-.221.039-.103.111-.16.09-.293-.01-.062-.052-.12-.064-.187-.022-.114.002-.224 0-.337-.003-.2.017-.379-.078-.55-.38-.688-1.236-.929-1.975-.789-.18.034-.287.126-.442.207-.17.088-.139.166-.318.224-.081.026-.216.124-.215.224.001.115.005.051.012.169-.021.011-.021-.005-.03-.025m-7.645-.001a.247.247 0 01-.026.19c-.053.101-.112.062-.165.128a.636.636 0 00-.079.362c-.169.058-.009.227-.015.35-.002.05-.041.105-.045.161a.764.764 0 00.068.37c.097.198.268.413.435.544.19.148.365.572.608.631.177.042.384-.104.543-.143.18-.043.397.01.571-.053.222-.079.127-.337.288-.45.104-.074.287-.01.406-.051a.607.607 0 00.376-.46c.016-.082.01-.145.039-.221.039-.103.111-.16.09-.293-.01-.062-.052-.12-.064-.187-.022-.114.002-.224 0-.337-.003-.2.017-.379-.078-.55-.38-.688-1.236-.929-1.975-.789-.18.034-.287.126-.442.207-.17.088-.139.166-.318.224-.081.026-.216.124-.215.224.001.115.005.051.012.169-.021.011-.021-.005-.03-.025m-7.644-.001a.247.247 0 01-.026.19c-.053.101-.112.062-.165.128a.636.636 0 00-.079.362c-.169.058-.009.227-.015.35-.002.05-.041.105-.045.161a.764.764 0 00.068.37c.097.198.268.413.435.544.19.148.365.572.608.631.177.042.384-.104.543-.143.18-.043.397.01.571-.053.222-.079.127-.337.288-.45.104-.074.287-.01.406-.051a.607.607 0 00.376-.46c.016-.082.01-.145.039-.221.039-.103.111-.16.09-.293-.01-.062-.052-.12-.064-.187-.022-.114.002-.224 0-.337-.003-.2.017-.379-.078-.55-.38-.688-1.236-.929-1.975-.789-.18.034-.287.126-.442.207-.17.088-.139.166-.318.224-.081.026-.216.124-.215.224.001.115.005.051.012.169-.021.011-.021-.005-.03-.025m-7.644-.001a.247.247 0 01-.026.19c-.053.101-.112.062-.165.128a.636.636 0 00-.079.362c-.169.058-.009.227-.015.35-.002.05-.041.105-.045.161a.764.764 0 00.068.37c.097.198.268.413.435.544.19.148.365.572.608.631.177.042.384-.104.543-.143.18-.043.397.01.571-.053.222-.079.127-.337.288-.45.104-.074.287-.01.406-.051a.607.607 0 00.376-.46c.016-.082.01-.145.039-.221.039-.103.111-.16.09-.293-.01-.062-.052-.12-.064-.187-.022-.114.002-.224 0-.337-.003-.2.017-.379-.078-.55-.38-.688-1.236-.929-1.975-.789-.18.034-.287.126-.442.207-.17.088-.139.166-.318.224-.081.026-.216.124-.215.224.001.115.005.051.012.169-.021.011-.021-.005-.03-.025m-7.645-.001a.247.247 0 01-.026.19c-.053.101-.112.062-.165.128a.636.636 0 00-.079.362c-.169.058-.009.227-.015.35-.002.05-.041.105-.045.161a.764.764 0 00.068.37c.097.198.268.413.435.544.19.148.365.572.608.631.177.042.384-.104.543-.143.18-.043.397.01.571-.053.222-.079.127-.337.288-.45.104-.074.287-.01.406-.051a.607.607 0 00.376-.46c.016-.082.01-.145.039-.221.039-.103.111-.16.09-.293-.01-.062-.052-.12-.064-.187-.022-.114.002-.224 0-.337-.003-.2.017-.379-.078-.55-.38-.688-1.236-.929-1.975-.789-.18.034-.287.126-.442.207-.17.088-.139.166-.318.224-.081.026-.216.124-.215.224.001.115.005.051.012.169-.021.011-.021-.005-.03-.025m-7.644-.001a.247.247 0 01-.026.19c-.053.101-.112.062-.165.128a.636.636 0 00-.079.362c-.169.058-.009.227-.015.35-.002.05-.041.105-.045.161a.764.764 0 00.068.37c.097.198.268.413.435.544.19.148.365.572.608.631.177.042.384-.104.543-.143.18-.043.397.01.571-.053.222-.079.127-.337.288-.45.104-.074.287-.01.406-.051a.607.607 0 00.376-.46c.016-.082.01-.145.039-.221.039-.103.111-.16.09-.293-.01-.062-.052-.12-.064-.187-.022-.114.002-.224 0-.337-.003-.2.017-.379-.078-.55-.38-.688-1.236-.929-1.975-.789-.18.034-.287.126-.442.207-.17.088-.139.166-.318.224-.081.026-.216.124-.215.224.001.115.005.051.012.169-.021.011-.021-.005-.03-.025m-7.644-.001a.247.247 0 01-.026.19c-.053.101-.112.062-.165.128a.636.636 0 00-.079.362c-.169.058-.009.227-.015.35-.002.05-.041.105-.045.161a.764.764 0 00.068.37c.097.198.268.413.435.544.19.148.365.572.608.631.177.042.384-.104.543-.143.18-.043.397.01.571-.053.222-.079.127-.337.288-.45.104-.074.287-.01.406-.051a.607.607 0 00.376-.46c.016-.082.01-.145.039-.221.039-.103.111-.16.09-.293-.01-.062-.052-.12-.064-.187-.022-.114.002-.224 0-.337-.003-.2.017-.379-.078-.55-.38-.688-1.236-.929-1.975-.789-.18.034-.287.126-.442.207-.17.088-.139.166-.318.224-.081.026-.216.124-.215.224.001.115.005.051.012.169-.021.011-.021-.005-.03-.025m-7.645-.001a.247.247 0 01-.026.19c-.053.101-.112.062-.165.128a.636.636 0 00-.079.362c-.169.058-.009.227-.015.35-.002.05-.041.105-.045.161a.764.764 0 00.068.37c.097.198.268.413.435.544.19.148.365.572.608.631.177.042.384-.104.543-.143.18-.043.397.01.571-.053.222-.079.127-.337.288-.45.104-.074.287-.01.406-.051a.607.607 0 00.376-.46c.016-.082.01-.145.039-.221.039-.103.111-.16.09-.293-.01-.062-.052-.12-.064-.187-.022-.114.002-.224 0-.337-.003-.2.017-.379-.078-.55-.38-.688-1.236-.929-1.975-.789-.18.034-.287.126-.442.207-.17.088-.139.166-.318.224-.081.026-.216.124-.215.224.001.115.005.051.012.169-.021.011-.021-.005-.03-.025m-7.644-.001a.247.247 0 01-.026.19c-.053.101-.112.062-.165.128a.636.636 0 00-.079.362c-.169.058-.009.227-.015.35-.002.05-.041.105-.045.161a.764.764 0 00.068.37c.097.198.268.413.435.544.19.148.365.572.608.631.177.042.384-.104.543-.143.18-.043.397.01.571-.053.222-.079.127-.337.288-.45.104-.074.287-.01.406-.051a.607.607 0 00.376-.46c.016-.082.01-.145.039-.221.039-.103.111-.16.09-.293-.01-.062-.052-.12-.064-.187-.022-.114.002-.224 0-.337-.003-.2.017-.379-.078-.55-.38-.688-1.236-.929-1.975-.789-.18.034-.287.126-.442.207-.17.088-.139.166-.318.224-.081.026-.216.124-.215.224.001.115.005.051.012.169-.021.011-.021-.005-.03-.025M.495-33.39a.247.247 0 01-.026.19c-.053.101-.112.062-.165.128a.636.636 0 00-.079.362c-.169.058-.01.227-.015.35-.002.05-.041.105-.045.161a.764.764 0 00.068.37c.097.198.268.413.435.544.19.148.365.572.608.631.177.042.384-.104.543-.143.18-.043.397.01.571-.053.222-.079.127-.337.288-.45.104-.074.287-.01.406-.051a.607.607 0 00.376-.46c.016-.082.01-.145.039-.221.039-.103.111-.16.09-.293-.01-.062-.052-.12-.064-.187-.022-.114.002-.224 0-.337-.003-.2.017-.379-.078-.55-.38-.688-1.236-.929-1.975-.789-.18.034-.287.126-.442.207-.17.088-.139.166-.318.224-.081.026-.216.124-.215.224.003.117.006.053.013.171-.021.011-.021-.005-.03-.025m68.959 7.651a.247.247 0 01-.026.19c-.053.101-.112.062-.165.128a.636.636 0 00-.079.362c-.169.058-.01.227-.015.35-.002.05-.041.105-.045.161a.764.764 0 00.068.37c.097.198.268.413.435.544.19.148.365.572.608.631.177.042.384-.104.543-.143.18-.043.397.01.571-.053.222-.079.127-.337.288-.45.104-.074.287-.01.406-.051a.607.607 0 00.376-.46c.016-.082.01-.145.039-.221.039-.103.111-.16.09-.293-.01-.062-.052-.12-.064-.187-.022-.114.002-.224 0-.337-.003-.2.017-.379-.078-.55-.38-.688-1.236-.929-1.975-.789-.18.034-.287.126-.442.207-.17.088-.139.166-.318.224-.081.026-.216.124-.215.224.001.115.005.051.012.169-.021.011-.021-.005-.03-.025m-7.645-.001a.247.247 0 01-.026.19c-.053.101-.112.062-.165.128a.636.636 0 00-.079.362c-.169.058-.009.227-.015.35-.002.05-.041.105-.045.161a.764.764 0 00.068.37c.097.198.268.413.435.544.19.148.365.572.608.631.177.042.384-.104.543-.143.18-.043.397.01.571-.053.222-.079.127-.337.288-.45.104-.074.287-.01.406-.051a.607.607 0 00.376-.46c.016-.082.01-.145.039-.221.039-.103.111-.16.09-.293-.01-.062-.052-.12-.064-.187-.022-.114.002-.224 0-.337-.003-.2.017-.379-.078-.55-.38-.688-1.236-.929-1.975-.789-.18.034-.287.126-.442.207-.17.088-.139.166-.318.224-.081.026-.216.124-.215.224.001.115.005.051.012.169-.021.011-.021-.005-.03-.025m-7.644-.001a.247.247 0 01-.026.19c-.053.101-.112.062-.165.128a.636.636 0 00-.079.362c-.169.058-.009.227-.015.35-.002.05-.041.105-.045.161a.764.764 0 00.068.37c.097.198.268.413.435.544.19.148.365.572.608.631.177.042.384-.104.543-.143.18-.043.397.01.571-.053.222-.079.127-.337.288-.45.104-.074.287-.01.406-.051a.607.607 0 00.376-.46c.016-.082.01-.145.039-.221.039-.103.111-.16.09-.293-.01-.062-.052-.12-.064-.187-.022-.114.002-.224 0-.337-.003-.2.017-.379-.078-.55-.38-.688-1.236-.929-1.975-.789-.18.034-.287.126-.442.207-.17.088-.139.166-.318.224-.081.026-.216.124-.215.224.001.115.005.051.012.169-.021.011-.021-.005-.03-.025m-7.644-.001a.247.247 0 01-.026.19c-.053.101-.112.062-.165.128a.636.636 0 00-.079.362c-.169.058-.009.227-.015.35-.002.05-.041.105-.045.161a.764.764 0 00.068.37c.097.198.268.413.435.544.19.148.365.572.608.631.177.042.384-.104.543-.143.18-.043.397.01.571-.053.222-.079.127-.337.288-.45.104-.074.287-.01.406-.051a.607.607 0 00.376-.46c.016-.082.01-.145.039-.221.039-.103.111-.16.09-.293-.01-.062-.052-.12-.064-.187-.022-.114.002-.224 0-.337-.003-.2.017-.379-.078-.55-.38-.688-1.236-.929-1.975-.789-.18.034-.287.126-.442.207-.17.088-.139.166-.318.224-.081.026-.216.124-.215.224.001.115.005.051.012.169-.021.011-.021-.005-.03-.025m-7.645-.001a.247.247 0 01-.026.19c-.053.101-.112.062-.165.128a.636.636 0 00-.079.362c-.169.058-.009.227-.015.35-.002.05-.041.105-.045.161a.764.764 0 00.068.37c.097.198.268.413.435.544.19.148.365.572.608.631.177.042.384-.104.543-.143.18-.043.397.01.571-.053.222-.079.127-.337.288-.45.104-.074.287-.01.406-.051a.607.607 0 00.376-.46c.016-.082.01-.145.039-.221.039-.103.111-.16.09-.293-.01-.062-.052-.12-.064-.187-.022-.114.002-.224 0-.337-.003-.2.017-.379-.078-.55-.38-.688-1.236-.929-1.975-.789-.18.034-.287.126-.442.207-.17.088-.139.166-.318.224-.081.026-.216.124-.215.224.001.115.005.051.012.169-.021.011-.021-.005-.03-.025m-7.644-.001a.247.247 0 01-.026.19c-.053.101-.112.062-.165.128a.636.636 0 00-.079.362c-.169.058-.009.227-.015.35-.002.05-.041.105-.045.161a.764.764 0 00.068.37c.097.198.268.413.435.544.19.148.365.572.608.631.177.042.384-.104.543-.143.18-.043.397.01.571-.053.222-.079.127-.337.288-.45.104-.074.287-.01.406-.051a.607.607 0 00.376-.46c.016-.082.01-.145.039-.221.039-.103.111-.16.09-.293-.01-.062-.052-.12-.064-.187-.022-.114.002-.224 0-.337-.003-.2.017-.379-.078-.55-.38-.688-1.236-.929-1.975-.789-.18.034-.287.126-.442.207-.17.088-.139.166-.318.224-.081.026-.216.124-.215.224.001.115.005.051.012.169-.021.011-.021-.005-.03-.025m-7.644-.001a.247.247 0 01-.026.19c-.053.101-.112.062-.165.128a.636.636 0 00-.079.362c-.169.058-.009.227-.015.35-.002.05-.041.105-.045.161a.764.764 0 00.068.37c.097.198.268.413.435.544.19.148.365.572.608.631.177.042.384-.104.543-.143.18-.043.397.01.571-.053.222-.079.127-.337.288-.45.104-.074.287-.01.406-.051a.607.607 0 00.376-.46c.016-.082.01-.145.039-.221.039-.103.111-.16.09-.293-.01-.062-.052-.12-.064-.187-.022-.114.002-.224 0-.337-.003-.2.017-.379-.078-.55-.38-.688-1.236-.929-1.975-.789-.18.034-.287.126-.442.207-.17.088-.139.166-.318.224-.081.026-.216.124-.215.224.001.115.005.051.012.169-.021.011-.021-.005-.03-.025m-7.645-.001a.247.247 0 01-.026.19c-.053.101-.112.062-.165.128a.636.636 0 00-.079.362c-.169.058-.009.227-.015.35-.002.05-.041.105-.045.161a.764.764 0 00.068.37c.097.198.268.413.435.544.19.148.365.572.608.631.177.042.384-.104.543-.143.18-.043.397.01.571-.053.222-.079.127-.337.288-.45.104-.074.287-.01.406-.051a.607.607 0 00.376-.46c.016-.082.01-.145.039-.221.039-.103.111-.16.09-.293-.01-.062-.052-.12-.064-.187-.022-.114.002-.224 0-.337-.003-.2.017-.379-.078-.55-.38-.688-1.236-.929-1.975-.789-.18.034-.287.126-.442.207-.17.088-.139.166-.318.224-.081.026-.216.124-.215.224.001.115.005.051.012.169-.021.011-.021-.005-.03-.025m-7.644-.001a.247.247 0 01-.026.19c-.053.101-.112.062-.165.128a.636.636 0 00-.079.362c-.169.058-.009.227-.015.35-.002.05-.041.105-.045.161a.764.764 0 00.068.37c.097.198.268.413.435.544.19.148.365.572.608.631.177.042.384-.104.543-.143.18-.043.397.01.571-.053.222-.079.127-.337.288-.45.104-.074.287-.01.406-.051a.607.607 0 00.376-.46c.016-.082.01-.145.039-.221.039-.103.111-.16.09-.293-.01-.062-.052-.12-.064-.187-.022-.114.002-.224 0-.337-.003-.2.017-.379-.078-.55-.38-.688-1.236-.929-1.975-.789-.18.034-.287.126-.442.207-.17.088-.139.166-.318.224-.081.026-.216.124-.215.224.001.115.005.051.012.169-.021.011-.021-.005-.03-.025m-7.645-.001a.247.247 0 01-.026.19c-.053.101-.112.062-.165.128a.636.636 0 00-.079.362c-.169.058-.01.227-.015.35-.002.05-.041.105-.045.161a.764.764 0 00.068.37c.097.198.268.413.435.544.19.148.365.572.608.631.177.042.384-.104.543-.143.18-.043.397.01.571-.053.222-.079.127-.337.288-.45.104-.074.287-.01.406-.051a.607.607 0 00.376-.46c.016-.082.01-.145.039-.221.039-.103.111-.16.09-.293-.01-.062-.052-.12-.064-.187-.022-.114.002-.224 0-.337-.003-.2.017-.379-.078-.55-.38-.688-1.236-.929-1.975-.789-.18.034-.287.126-.442.207-.17.088-.139.166-.318.224-.081.026-.216.124-.215.224.001.115.005.051.012.169-.021.011-.021-.005-.03-.025m68.96 7.651a.247.247 0 01-.026.19c-.053.101-.112.062-.165.128a.636.636 0 00-.079.362c-.169.058-.01.227-.015.35-.002.05-.041.105-.045.161a.764.764 0 00.068.37c.097.198.268.413.435.544.19.148.365.572.608.631.177.042.384-.104.543-.143.18-.043.397.01.571-.053.222-.079.127-.337.288-.45.104-.074.287-.01.406-.051a.607.607 0 00.376-.46c.016-.082.01-.145.039-.221.039-.103.111-.16.09-.293-.01-.062-.052-.12-.064-.187-.022-.114.002-.224 0-.337-.003-.2.017-.379-.078-.55-.38-.688-1.236-.929-1.975-.789-.18.034-.287.126-.442.207-.17.088-.139.166-.318.224-.081.026-.216.124-.215.224.001.115.005.051.012.169-.021.011-.021-.005-.03-.025m-7.645-.001a.247.247 0 01-.026.19c-.053.101-.112.062-.165.128a.636.636 0 00-.079.362c-.169.058-.009.227-.015.35-.002.05-.041.105-.045.161a.764.764 0 00.068.37c.097.198.268.413.435.544.19.148.365.572.608.631.177.042.384-.104.543-.143.18-.043.397.01.571-.053.222-.079.127-.337.288-.45.104-.074.287-.01.406-.051a.607.607 0 00.376-.46c.016-.082.01-.145.039-.221.039-.103.111-.16.09-.293-.01-.062-.052-.12-.064-.187-.022-.114.002-.224 0-.337-.003-.2.017-.379-.078-.55-.38-.688-1.236-.929-1.975-.789-.18.034-.287.126-.442.207-.17.088-.139.166-.318.224-.081.026-.216.124-.215.224.001.115.005.051.012.169-.021.011-.021-.005-.03-.025m-7.644-.001a.247.247 0 01-.026.19c-.053.101-.112.062-.165.128a.636.636 0 00-.079.362c-.169.058-.009.227-.015.35-.002.05-.041.105-.045.161a.764.764 0 00.068.37c.097.198.268.413.435.544.19.148.365.572.608.631.177.042.384-.104.543-.143.18-.043.397.01.571-.053.222-.079.127-.337.288-.45.104-.074.287-.01.406-.051a.607.607 0 00.376-.46c.016-.082.01-.145.039-.221.039-.103.111-.16.09-.293-.01-.062-.052-.12-.064-.187-.022-.114.002-.224 0-.337-.003-.2.017-.379-.078-.55-.38-.688-1.236-.929-1.975-.789-.18.034-.287.126-.442.207-.17.088-.139.166-.318.224-.081.026-.216.124-.215.224.001.115.005.051.012.169-.021.011-.021-.005-.03-.025m-7.644-.001a.247.247 0 01-.026.19c-.053.101-.112.062-.165.128a.636.636 0 00-.079.362c-.169.058-.009.227-.015.35-.002.05-.041.105-.045.161a.764.764 0 00.068.37c.097.198.268.413.435.544.19.148.365.572.608.631.177.042.384-.104.543-.143.18-.043.397.01.571-.053.222-.079.127-.337.288-.45.104-.074.287-.01.406-.051a.607.607 0 00.376-.46c.016-.082.01-.145.039-.221.039-.103.111-.16.09-.293-.01-.062-.052-.12-.064-.187-.022-.114.002-.224 0-.337-.003-.2.017-.379-.078-.55-.38-.688-1.236-.929-1.975-.789-.18.034-.287.126-.442.207-.17.088-.139.166-.318.224-.081.026-.216.124-.215.224.001.115.005.051.012.169-.021.011-.021-.005-.03-.025m-7.645-.001a.247.247 0 01-.026.19c-.053.101-.112.062-.165.128a.636.636 0 00-.079.362c-.169.058-.009.227-.015.35-.002.05-.041.105-.045.161a.764.764 0 00.068.37c.097.198.268.413.435.544.19.148.365.572.608.631.177.042.384-.104.543-.143.18-.043.397.01.571-.053.222-.079.127-.337.288-.45.104-.074.287-.01.406-.051a.607.607 0 00.376-.46c.016-.082.01-.145.039-.221.039-.103.111-.16.09-.293-.01-.062-.052-.12-.064-.187-.022-.114.002-.224 0-.337-.003-.2.017-.379-.078-.55-.38-.688-1.236-.929-1.975-.789-.18.034-.287.126-.442.207-.17.088-.139.166-.318.224-.081.026-.216.124-.215.224.001.115.005.051.012.169-.021.011-.021-.005-.03-.025m-7.644-.001a.247.247 0 01-.026.19c-.053.101-.112.062-.165.128a.636.636 0 00-.079.362c-.169.058-.009.227-.015.35-.002.05-.041.105-.045.161a.764.764 0 00.068.37c.097.198.268.413.435.544.19.148.365.572.608.631.177.042.384-.104.543-.143.18-.043.397.01.571-.053.222-.079.127-.337.288-.45.104-.074.287-.01.406-.051a.607.607 0 00.376-.46c.016-.082.01-.145.039-.221.039-.103.111-.16.09-.293-.01-.062-.052-.12-.064-.187-.022-.114.002-.224 0-.337-.003-.2.017-.379-.078-.55-.38-.688-1.236-.929-1.975-.789-.18.034-.287.126-.442.207-.17.088-.139.166-.318.224-.081.026-.216.124-.215.224.001.115.005.051.012.169-.021.011-.021-.005-.03-.025m-7.644-.001a.247.247 0 01-.026.19c-.053.101-.112.062-.165.128a.636.636 0 00-.079.362c-.169.058-.009.227-.015.35-.002.05-.041.105-.045.161a.764.764 0 00.068.37c.097.198.268.413.435.544.19.148.365.572.608.631.177.042.384-.104.543-.143.18-.043.397.01.571-.053.222-.079.127-.337.288-.45.104-.074.287-.01.406-.051a.607.607 0 00.376-.46c.016-.082.01-.145.039-.221.039-.103.111-.16.09-.293-.01-.062-.052-.12-.064-.187-.022-.114.002-.224 0-.337-.003-.2.017-.379-.078-.55-.38-.688-1.236-.929-1.975-.789-.18.034-.287.126-.442.207-.17.088-.139.166-.318.224-.081.026-.216.124-.215.224.001.115.005.051.012.169-.021.011-.021-.005-.03-.025m-7.645-.001a.247.247 0 01-.026.19c-.053.101-.112.062-.165.128a.636.636 0 00-.079.362c-.169.058-.009.227-.015.35-.002.05-.041.105-.045.161a.764.764 0 00.068.37c.097.198.268.413.435.544.19.148.365.572.608.631.177.042.384-.104.543-.143.18-.043.397.01.571-.053.222-.079.127-.337.288-.45.104-.074.287-.01.406-.051a.607.607 0 00.376-.46c.016-.082.01-.145.039-.221.039-.103.111-.16.09-.293-.01-.062-.052-.12-.064-.187-.022-.114.002-.224 0-.337-.003-.2.017-.379-.078-.55-.38-.688-1.236-.929-1.975-.789-.18.034-.287.126-.442.207-.17.088-.139.166-.318.224-.081.026-.216.124-.215.224.001.115.005.051.012.169-.021.011-.021-.005-.03-.025m-7.644-.001a.247.247 0 01-.026.19c-.053.101-.112.062-.165.128a.636.636 0 00-.079.362c-.169.058-.009.227-.015.35-.002.05-.041.105-.045.161a.764.764 0 00.068.37c.097.198.268.413.435.544.19.148.365.572.608.631.177.042.384-.104.543-.143.18-.043.397.01.571-.053.222-.079.127-.337.288-.45.104-.074.287-.01.406-.051a.607.607 0 00.376-.46c.016-.082.01-.145.039-.221.039-.103.111-.16.09-.293-.01-.062-.052-.12-.064-.187-.022-.114.002-.224 0-.337-.003-.2.017-.379-.078-.55-.38-.688-1.236-.929-1.975-.789-.18.034-.287.126-.442.207-.17.088-.139.166-.318.224-.081.026-.216.124-.215.224.001.115.005.051.012.169-.021.011-.021-.005-.03-.025m-7.645-.001a.247.247 0 01-.026.19c-.053.101-.112.062-.165.128a.636.636 0 00-.079.362c-.169.058-.01.227-.015.35-.002.05-.041.105-.045.161a.764.764 0 00.068.37c.097.198.268.413.435.544.19.148.365.572.608.631.177.042.384-.104.543-.143.18-.043.397.01.571-.053.222-.079.127-.337.288-.45.104-.074.287-.01.406-.051a.607.607 0 00.376-.46c.016-.082.01-.145.039-.221.039-.103.111-.16.09-.293-.01-.062-.052-.12-.064-.187-.022-.114.002-.224 0-.337-.003-.2.017-.379-.078-.55-.38-.688-1.236-.929-1.975-.789-.18.034-.287.126-.442.207-.17.088-.139.166-.318.224-.081.026-.216.124-.215.224.003.117.006.052.013.17-.021.011-.021-.005-.03-.025m68.959 7.651a.247.247 0 01-.026.19c-.053.101-.112.062-.165.128a.636.636 0 00-.079.362c-.169.059-.01.228-.015.351-.002.05-.041.105-.045.161a.764.764 0 00.068.37c.097.198.268.413.435.544.19.148.365.572.608.631.177.042.384-.104.543-.143.18-.043.397.01.571-.053.222-.079.127-.337.288-.45.104-.074.287-.01.406-.051a.607.607 0 00.376-.46c.016-.082.01-.145.039-.221.039-.103.111-.16.09-.293-.01-.062-.052-.12-.064-.187-.022-.114.002-.224 0-.337-.003-.2.017-.379-.078-.55-.38-.688-1.236-.929-1.975-.789-.18.034-.287.126-.442.207-.17.088-.139.166-.318.224-.081.026-.216.124-.215.224.001.115.005.051.012.169-.021.011-.021-.005-.03-.025m-7.645-.002a.247.247 0 01-.026.19c-.053.101-.112.062-.165.128a.636.636 0 00-.079.362c-.169.058-.009.227-.015.35-.002.05-.041.105-.045.161a.764.764 0 00.068.37c.097.198.268.413.435.544.19.148.365.572.608.631.177.042.384-.104.543-.143.18-.043.397.01.571-.053.222-.079.127-.337.288-.45.104-.074.287-.01.406-.051a.607.607 0 00.376-.46c.016-.082.01-.145.039-.221.039-.103.111-.16.09-.293-.01-.062-.052-.12-.064-.187-.022-.114.002-.224 0-.337-.003-.2.017-.379-.078-.55-.38-.688-1.236-.929-1.975-.789-.18.034-.287.126-.442.207-.17.088-.139.166-.318.224-.081.026-.216.124-.215.224.001.115.005.051.012.169-.021.011-.021-.005-.03-.025m-7.644-.001a.247.247 0 01-.026.19c-.053.101-.112.062-.165.128a.636.636 0 00-.079.362c-.169.058-.009.227-.015.35-.002.05-.041.105-.045.161a.764.764 0 00.068.37c.097.198.268.413.435.544.19.148.365.572.608.631.177.042.384-.104.543-.143.18-.043.397.01.571-.053.222-.079.127-.337.288-.45.104-.074.287-.01.406-.051a.607.607 0 00.376-.46c.016-.082.01-.145.039-.221.039-.103.111-.16.09-.293-.01-.062-.052-.12-.064-.187-.022-.114.002-.224 0-.337-.003-.2.017-.379-.078-.55-.38-.688-1.236-.929-1.975-.789-.18.034-.287.126-.442.207-.17.088-.139.166-.318.224-.081.026-.216.124-.215.224.001.115.005.051.012.169-.021.011-.021-.005-.03-.025m-7.644-.001a.247.247 0 01-.026.19c-.053.101-.112.062-.165.128a.636.636 0 00-.079.362c-.169.058-.009.227-.015.35-.002.05-.041.105-.045.161a.764.764 0 00.068.37c.097.198.268.413.435.544.19.148.365.572.608.631.177.042.384-.104.543-.143.18-.043.397.01.571-.053.222-.079.127-.337.288-.45.104-.074.287-.01.406-.051a.607.607 0 00.376-.46c.016-.082.01-.145.039-.221.039-.103.111-.16.09-.293-.01-.062-.052-.12-.064-.187-.022-.114.002-.224 0-.337-.003-.2.017-.379-.078-.55-.38-.688-1.236-.929-1.975-.789-.18.034-.287.126-.442.207-.17.088-.139.166-.318.224-.081.026-.216.124-.215.224.001.115.005.051.012.169-.021.011-.021-.005-.03-.025m-7.645-.001a.247.247 0 01-.026.19c-.053.101-.112.062-.165.128a.636.636 0 00-.079.362c-.169.058-.009.227-.015.35-.002.05-.041.105-.045.161a.764.764 0 00.068.37c.097.198.268.413.435.544.19.148.365.572.608.631.177.042.384-.104.543-.143.18-.043.397.01.571-.053.222-.079.127-.337.288-.45.104-.074.287-.01.406-.051a.607.607 0 00.376-.46c.016-.082.01-.145.039-.221.039-.103.111-.16.09-.293-.01-.062-.052-.12-.064-.187-.022-.114.002-.224 0-.337-.003-.2.017-.379-.078-.55-.38-.688-1.236-.929-1.975-.789-.18.034-.287.126-.442.207-.17.088-.139.166-.318.224-.081.026-.216.124-.215.224.001.115.005.051.012.169-.021.011-.021-.005-.03-.025m-7.644-.001a.247.247 0 01-.026.19c-.053.101-.112.062-.165.128a.636.636 0 00-.079.362c-.169.058-.009.227-.015.35-.002.05-.041.105-.045.161a.764.764 0 00.068.37c.097.198.268.413.435.544.19.148.365.572.608.631.177.042.384-.104.543-.143.18-.043.397.01.571-.053.222-.079.127-.337.288-.45.104-.074.287-.01.406-.051a.607.607 0 00.376-.46c.016-.082.01-.145.039-.221.039-.103.111-.16.09-.293-.01-.062-.052-.12-.064-.187-.022-.114.002-.224 0-.337-.003-.2.017-.379-.078-.55-.38-.688-1.236-.929-1.975-.789-.18.034-.287.126-.442.207-.17.088-.139.166-.318.224-.081.026-.216.124-.215.224.001.115.005.051.012.169-.021.011-.021-.005-.03-.025m-7.644-.001a.247.247 0 01-.026.19c-.053.101-.112.062-.165.128a.636.636 0 00-.079.362c-.169.058-.009.227-.015.35-.002.05-.041.105-.045.161a.764.764 0 00.068.37c.097.198.268.413.435.544.19.148.365.572.608.631.177.042.384-.104.543-.143.18-.043.397.01.571-.053.222-.079.127-.337.288-.45.104-.074.287-.01.406-.051a.607.607 0 00.376-.46c.016-.082.01-.145.039-.221.039-.103.111-.16.09-.293-.01-.062-.052-.12-.064-.187-.022-.114.002-.224 0-.337-.003-.2.017-.379-.078-.55-.38-.688-1.236-.929-1.975-.789-.18.034-.287.126-.442.207-.17.088-.139.166-.318.224-.081.026-.216.124-.215.224.001.115.005.051.012.169-.021.011-.021-.005-.03-.025m-7.645-.001a.247.247 0 01-.026.19c-.053.101-.112.062-.165.128a.636.636 0 00-.079.362c-.169.058-.009.227-.015.35-.002.05-.041.105-.045.161a.764.764 0 00.068.37c.097.198.268.413.435.544.19.148.365.572.608.631.177.042.384-.104.543-.143.18-.043.397.01.571-.053.222-.078.128-.336.289-.449.104-.074.287-.01.406-.051a.607.607 0 00.376-.46c.016-.082.01-.145.039-.221.039-.103.111-.16.09-.293-.01-.062-.052-.12-.064-.187-.022-.114.002-.224 0-.337-.003-.2.017-.379-.078-.55-.38-.688-1.236-.929-1.975-.789-.18.034-.287.126-.442.207-.17.088-.139.166-.318.224-.081.026-.216.124-.215.224.001.115.005.051.012.169-.021.011-.021-.005-.03-.025m-7.645-.002a.247.247 0 01-.026.19c-.053.101-.112.062-.165.128a.641.641 0 00-.079.363c-.169.058-.01.227-.015.35-.003.049-.041.105-.045.161a.764.764 0 00.068.37c.097.198.268.413.435.544.19.148.365.572.608.631.177.042.384-.105.543-.143.18-.043.397.01.571-.053.222-.079.127-.337.288-.45.104-.074.287-.01.406-.051a.607.607 0 00.376-.46c.016-.082.01-.145.039-.221.039-.103.111-.16.09-.293-.01-.062-.052-.12-.064-.187-.022-.114.002-.224 0-.337-.003-.2.017-.379-.078-.55-.38-.688-1.236-.929-1.975-.789-.18.034-.287.126-.442.207-.17.088-.139.166-.318.224-.081.026-.216.124-.215.224.001.115.005.051.012.169-.021.011-.021-.005-.03-.025m-7.645-.002a.247.247 0 01-.026.19c-.053.101-.112.062-.165.128a.641.641 0 00-.079.363c-.169.058-.01.227-.015.35-.002.05-.041.105-.045.161a.764.764 0 00.068.37c.097.198.268.413.435.544.19.148.365.572.608.631.178.042.384-.105.543-.143.181-.043.398.01.572-.053.222-.079.127-.337.288-.45.104-.074.287-.01.406-.051a.607.607 0 00.376-.46c.016-.082.01-.144.039-.22.039-.103.111-.16.09-.293-.01-.062-.052-.12-.064-.187-.022-.114.002-.224 0-.337-.003-.2.017-.379-.078-.55-.38-.688-1.236-.929-1.975-.789-.18.034-.287.126-.442.207-.17.088-.139.166-.318.224-.081.026-.216.124-.215.224.001.115.005.051.012.169-.021.011-.021-.005-.03-.025m68.959 7.65a.242.242 0 01-.026.19c-.052.101-.113.063-.165.128a.628.628 0 00-.079.362c-.169.058-.01.227-.015.35-.002.05-.041.105-.045.161a.764.764 0 00.068.37c.097.198.268.413.435.544.19.148.365.572.608.631.177.042.384-.104.543-.143.18-.043.397.01.571-.053.222-.079.127-.337.288-.45.104-.074.287-.01.406-.051.2-.07.339-.263.376-.46.016-.082.01-.145.039-.221.038-.103.111-.16.09-.293-.01-.062-.051-.12-.064-.187-.021-.114.002-.224 0-.337-.003-.2.017-.379-.078-.55-.38-.688-1.236-.929-1.975-.789-.18.034-.287.126-.442.207-.17.088-.139.166-.318.224-.081.026-.215.124-.215.224.002.115.005.051.012.169-.021.011-.021-.005-.03-.025m-7.645-.001a.247.247 0 01-.026.19c-.052.101-.112.063-.165.128a.636.636 0 00-.079.362c-.169.058-.01.227-.015.35-.002.05-.041.105-.045.161a.764.764 0 00.068.37c.097.198.268.413.435.544.19.148.365.572.608.631.178.042.384-.104.544-.143.18-.043.397.01.571-.053.222-.079.127-.337.288-.45.104-.074.287-.01.406-.051a.607.607 0 00.376-.46c.016-.082.01-.145.039-.221.039-.103.111-.16.09-.293-.01-.062-.052-.12-.064-.187-.022-.114.002-.224 0-.337-.003-.2.017-.379-.078-.55-.38-.688-1.236-.929-1.975-.789-.18.034-.287.126-.442.207-.17.088-.139.166-.318.224-.081.028-.216.125-.215.225.001.115.005.051.012.169-.021.011-.021-.005-.03-.025m-7.645-.002a.247.247 0 01-.026.19c-.052.101-.112.063-.165.128a.636.636 0 00-.079.362c-.169.058-.01.227-.015.35-.002.05-.041.105-.045.161a.764.764 0 00.068.37c.097.198.268.413.435.544.19.148.365.572.608.631.178.042.384-.104.543-.143.18-.043.397.01.571-.053.222-.079.127-.337.288-.45.104-.074.287-.01.406-.051a.607.607 0 00.376-.46c.016-.082.01-.145.039-.221.039-.103.111-.16.09-.293-.01-.062-.052-.12-.064-.187-.022-.114.002-.224 0-.337-.003-.2.017-.379-.078-.55-.38-.688-1.236-.929-1.975-.789-.18.034-.287.126-.442.207-.17.088-.139.166-.318.224-.08.028-.215.125-.214.225.001.115.005.051.012.169-.021.011-.021-.005-.03-.025m-7.645-.002a.247.247 0 01-.026.19c-.053.101-.112.062-.165.128a.636.636 0 00-.079.362c-.169.058-.01.227-.015.35-.002.05-.041.105-.045.161a.764.764 0 00.068.37c.097.198.268.413.435.544.19.148.365.572.608.631.177.042.384-.104.543-.143.18-.043.397.01.571-.053.222-.079.127-.337.288-.45.104-.074.287-.01.406-.051a.607.607 0 00.376-.46c.016-.082.01-.145.039-.221.039-.103.111-.16.09-.293-.01-.062-.052-.12-.064-.187-.022-.114.002-.224 0-.337-.003-.2.017-.379-.078-.55-.38-.688-1.236-.929-1.975-.789-.18.034-.287.126-.442.207-.17.088-.139.166-.318.224-.081.028-.216.125-.215.225.001.115.005.051.012.169-.021.011-.021-.005-.03-.025m-7.645-.002a.247.247 0 01-.026.19c-.053.101-.112.062-.165.128a.636.636 0 00-.079.362c-.169.058-.01.227-.015.35-.002.05-.041.105-.045.161a.764.764 0 00.068.37c.097.198.268.413.435.544.19.148.365.572.608.631.178.042.384-.104.544-.143.18-.043.397.01.571-.053.222-.079.127-.337.288-.45.104-.074.287-.01.406-.051a.607.607 0 00.376-.46c.016-.082.01-.145.039-.221.039-.103.111-.16.09-.293-.01-.062-.052-.12-.064-.187-.022-.114.002-.224 0-.337-.003-.2.017-.379-.078-.55-.38-.688-1.236-.929-1.975-.789-.18.034-.287.126-.442.207-.17.088-.139.166-.318.224-.081.028-.216.125-.215.225.001.115.005.051.012.169-.021.011-.021-.005-.03-.025m-7.645-.002a.247.247 0 01-.026.19c-.053.101-.112.062-.165.128a.636.636 0 00-.079.362c-.169.058-.01.227-.015.35-.002.05-.041.105-.045.161a.764.764 0 00.068.37c.097.198.268.413.435.544.19.148.365.572.608.631.177.042.384-.104.543-.143.18-.043.397.01.571-.053.222-.079.127-.337.288-.45.104-.074.287-.01.406-.051a.607.607 0 00.376-.46c.016-.082.01-.145.039-.221.039-.103.111-.16.09-.293-.01-.062-.052-.12-.064-.187-.022-.114.002-.224 0-.337-.003-.2.017-.379-.078-.55-.38-.688-1.236-.929-1.975-.789-.18.034-.287.126-.442.207-.17.088-.139.166-.318.224-.081.028-.215.125-.214.225.001.115.005.051.012.169-.021.011-.021-.005-.03-.025m-7.645-.002a.247.247 0 01-.026.19c-.053.101-.112.062-.165.128a.636.636 0 00-.079.362c-.169.058-.01.227-.015.35-.002.05-.041.105-.045.161a.764.764 0 00.068.37c.097.198.268.413.435.544.19.148.365.572.608.631.177.042.384-.104.543-.143.18-.043.397.01.571-.053.222-.079.127-.337.288-.45.104-.074.287-.01.406-.051a.607.607 0 00.376-.46c.016-.082.01-.145.039-.221.039-.103.111-.16.09-.293-.01-.062-.052-.12-.064-.187-.022-.114.002-.224 0-.337-.003-.2.017-.379-.078-.55-.38-.688-1.236-.929-1.975-.789-.18.034-.287.126-.442.207-.17.088-.139.166-.318.224-.081.026-.216.124-.215.224.001.115.005.051.012.169-.021.011-.021-.005-.03-.025m-7.645-.001a.247.247 0 01-.026.19c-.053.101-.112.062-.165.128a.636.636 0 00-.079.362c-.169.058-.01.227-.015.35-.002.05-.041.105-.045.161a.764.764 0 00.068.37c.097.198.268.413.435.544.19.148.365.572.608.631.177.042.384-.104.543-.143.18-.043.397.01.571-.053.222-.079.127-.337.288-.45.104-.074.287-.01.406-.051a.607.607 0 00.376-.46c.016-.082.01-.145.039-.221.039-.103.111-.16.09-.293-.01-.062-.052-.12-.064-.187-.022-.114.002-.224 0-.337-.003-.2.017-.379-.078-.55-.38-.688-1.236-.929-1.975-.789-.18.034-.287.126-.442.207-.17.088-.139.166-.318.224-.081.026-.216.124-.215.224.001.115.005.051.012.169-.02.012-.021-.004-.03-.024m-7.644-.002a.247.247 0 01-.026.19c-.053.101-.112.063-.165.128a.636.636 0 00-.079.362c-.169.058-.01.227-.015.35-.003.05-.041.105-.045.161a.764.764 0 00.068.37c.097.198.268.413.435.544.19.148.365.572.608.631.177.042.384-.104.543-.143.18-.043.397.01.571-.053.222-.079.127-.337.288-.45.104-.074.287-.01.406-.051a.607.607 0 00.376-.46c.016-.082.01-.145.039-.221.039-.103.111-.16.09-.293-.01-.062-.052-.12-.064-.187-.022-.114.002-.224 0-.337-.003-.2.017-.379-.078-.55-.38-.688-1.236-.929-1.975-.789-.179.036-.286.128-.441.209-.17.088-.139.166-.318.224-.082.026-.216.123-.215.223.001.115.005.051.011.169-.02.011-.021-.005-.03-.025M.495-2.778a.242.242 0 01-.026.19c-.052.101-.113.063-.165.128a.63.63 0 00-.079.362c-.169.058-.01.227-.015.35-.002.05-.041.105-.045.161a.764.764 0 00.068.37c.097.198.268.413.435.544.19.148.365.572.608.631.178.042.384-.104.543-.143.181-.043.398.01.572-.052.222-.079.127-.337.288-.45.104-.074.287-.01.406-.051.2-.07.339-.263.376-.46.016-.082.01-.145.039-.221.038-.103.111-.16.09-.293-.01-.062-.051-.12-.064-.187-.021-.114.002-.224 0-.337-.003-.2.017-.379-.078-.55-.38-.688-1.236-.929-1.975-.789-.18.035-.286.127-.442.208-.17.088-.139.166-.318.224-.081.026-.215.123-.215.223.002.115.005.051.012.169-.021.011-.022-.005-.031-.025" fill="#fff"/></pattern><path d="M426.694 284.72c0-27.249-22.375-49.382-49.964-49.382-39.366-1.649-79.64-2.377-120.729-2.292-41.087-.085-81.375.643-120.74 2.292-27.577 0-49.952 22.133-49.952 49.382-1.662 21.598-2.377 43.212-2.316 64.797-.061 21.599.655 43.199 2.316 64.798 0 27.26 22.375 49.393 49.952 49.393 39.366 1.639 79.653 2.365 120.74 2.293 41.089.072 81.362-.654 120.729-2.293 27.589 0 49.964-22.133 49.964-49.393 1.661-21.599 2.378-43.199 2.304-64.798.074-21.585-.643-43.2-2.304-64.797zM157.903 423.846h-23.636V293.002h-24.46v-22.216h72.558v22.216h-24.461v130.844zm84.092 0h-20.993v-12.454c-3.856 4.596-7.882 8.088-12.079 10.487-4.184 2.404-8.246 3.603-12.188 3.603-4.852 0-8.501-1.674-10.963-5.03-2.461-3.372-3.699-8.418-3.699-15.124v-94.389h20.993v86.553c0 2.68.448 4.621 1.322 5.81.885 1.202 2.304 1.81 4.269 1.81 1.553 0 3.504-.803 5.857-2.379 2.353-1.588 4.523-3.614 6.488-6.077V310.94h20.993v112.906zm80.805-23.382c0 8.027-1.638 14.165-4.912 18.434-3.298 4.256-8.053 6.392-14.273 6.392-4.099 0-7.762-.824-10.975-2.488-3.215-1.648-6.21-4.184-8.962-7.628v8.673h-21.199v-153.06h21.199v49.284c2.824-3.454 5.819-6.062 9.009-7.857 3.177-1.793 6.404-2.693 9.654-2.693 6.646 0 11.727 2.413 15.207 7.229 3.506 4.825 5.252 11.85 5.252 21.066v62.648zm77.603-30.415h-40.154v21.296c0 5.942.691 10.054 2.085 12.356 1.372 2.306 3.736 3.444 7.083 3.444 3.468 0 5.905-.969 7.301-2.923 1.383-1.94 2.074-6.231 2.074-12.878v-7.849h21.611v8.49c0 11.569-2.633 20.277-7.896 26.146-5.263 5.845-13.109 8.779-23.575 8.779-9.387 0-16.785-3.104-22.194-9.311-5.384-6.21-8.1-14.747-8.1-25.615v-50.68c0-9.812 2.971-17.792 8.9-23.963 5.931-6.172 13.596-9.255 22.981-9.255 9.616 0 16.979 2.862 22.145 8.562 5.154 5.725 7.738 13.935 7.738 24.655v28.746zM266.54 195.657c-2.473-3.372-3.687-8.405-3.687-15.123V86.159h20.981v86.553c0 2.68.436 4.608 1.321 5.809.885 1.188 2.304 1.795 4.269 1.795 1.552 0 3.504-.789 5.857-2.377 2.365-1.588 4.523-3.614 6.489-6.076V86.159h20.992v112.905H301.77v-12.466c-3.869 4.596-7.896 8.089-12.079 10.502-4.185 2.389-8.247 3.602-12.177 3.602-4.862 0-8.511-1.685-10.974-5.045zm-82.454-25.152c0 9.592 2.765 17.232 8.271 22.896 5.505 5.688 12.854 8.513 22.035 8.513 9.544 0 17.026-2.741 22.473-8.247 5.445-5.505 8.161-13.073 8.161-22.75v-58.309c0-8.61-2.777-15.657-8.319-21.114-5.555-5.457-12.661-8.198-21.356-8.198-9.544 0-17.136 2.595-22.787 7.786-5.651 5.179-8.478 12.139-8.478 20.883v58.54zm21.6-59.388c0-2.474.812-4.462 2.401-5.979 1.613-1.516 3.687-2.268 6.246-2.268 2.79 0 5.021.752 6.731 2.268 1.709 1.516 2.559 3.504 2.559 5.979v61.498c0 3.032-.837 5.421-2.499 7.143-1.674 1.734-3.954 2.595-6.792 2.595-2.777 0-4.899-.837-6.404-2.535-1.503-1.698-2.243-4.099-2.243-7.204v-61.497zm93.271 219.3c1.491 1.975 2.243 4.862 2.243 8.669v58.311c0 3.603-.605 6.185-1.819 7.786-1.211 1.575-3.093 2.365-5.662 2.365-1.784 0-3.47-.402-5.069-1.214-1.602-.812-3.264-2.137-4.972-3.967v-70.362c1.418-1.554 2.86-2.705 4.328-3.444s2.935-1.116 4.438-1.116c2.838-.001 5.008.993 6.513 2.972zm77.652.509c1.455 2.048 2.183 5.445 2.183 10.164v11.422h-18.543V341.09c0-4.719.728-8.116 2.183-10.164 1.455-2.038 3.856-3.069 7.191-3.069 3.202-.001 5.53 1.031 6.986 3.069zM134 138.416l-28.135-92.41h23.819l15.34 61.183h1.479l14.638-61.183h24.012l-27.518 89.548v63.511H134v-60.649z"/></svg>